<?xml version="1.0" encoding="UTF-8"?>
<svg id="Calque_1" xmlns="http://www.w3.org/2000/svg" version="1.1" xmlns:xlink="http://www.w3.org/1999/xlink" viewBox="0 0 639.5 959.24">
  <!-- Generator: Adobe Illustrator 30.1.0, SVG Export Plug-In . SVG Version: 2.1.1 Build 136)  -->
  <defs>
    <style>
      .st0 {
        fill: url(#Dégradé_sans_nom_7);
      }

      .st1 {
        fill: #096463;
      }

      .st2 {
        fill: url(#Dégradé_sans_nom_6);
      }

      .st3 {
        fill: #078081;
      }

      .st4 {
        fill: url(#Dégradé_sans_nom_2);
      }

      .st5 {
        fill: #078080;
      }

      .st6 {
        opacity: .65;
      }

      .st6, .st7 {
        isolation: isolate;
      }

      .st6, .st8 {
        fill: #f69b23;
      }

      .st9 {
        fill: url(#Dégradé_sans_nom);
      }

      .st10 {
        fill: url(#Dégradé_sans_nom_9);
      }

      .st11 {
        fill: #e85618;
      }

      .st12 {
        fill: url(#Dégradé_sans_nom_4);
      }

      .st13 {
        fill: url(#Dégradé_sans_nom_3);
      }

      .st14 {
        fill: url(#Dégradé_sans_nom_5);
      }

      .st15 {
        fill: url(#Dégradé_sans_nom_10);
      }

      .st16 {
        fill: url(#Dégradé_sans_nom_8);
      }

      .st17 {
        fill: #faa020;
      }
    </style>
    <linearGradient id="Dégradé_sans_nom" data-name="Dégradé sans nom" x1="92.82" y1="717.86" x2="92.82" y2="572.86" gradientTransform="translate(0 1001.31) scale(1 -1)" gradientUnits="userSpaceOnUse">
      <stop offset="0" stop-color="#e4471c" stop-opacity=".1"/>
      <stop offset="1" stop-color="#e4471c"/>
    </linearGradient>
    <linearGradient id="Dégradé_sans_nom_2" data-name="Dégradé sans nom 2" x1="165.52" y1="438.86" x2="165.52" y2="634.36" gradientTransform="translate(0 1001.31) scale(1 -1)" gradientUnits="userSpaceOnUse">
      <stop offset="0" stop-color="#e85618"/>
      <stop offset="1" stop-color="#ed6b13"/>
    </linearGradient>
    <linearGradient id="Dégradé_sans_nom_3" data-name="Dégradé sans nom 3" x1="159.59" y1="556.06" x2="159.59" y2="565.41" gradientTransform="translate(0 1001.31) scale(1 -1)" gradientUnits="userSpaceOnUse">
      <stop offset="0" stop-color="#e85618"/>
      <stop offset="1" stop-color="#ed6b13"/>
    </linearGradient>
    <linearGradient id="Dégradé_sans_nom_4" data-name="Dégradé sans nom 4" x1="181.04" y1="438.86" x2="181.04" y2="634.36" gradientTransform="translate(0 1001.31) scale(1 -1)" gradientUnits="userSpaceOnUse">
      <stop offset="0" stop-color="#e85618"/>
      <stop offset="1" stop-color="#ed6b13"/>
    </linearGradient>
    <linearGradient id="Dégradé_sans_nom_5" data-name="Dégradé sans nom 5" x1="172" y1="560.68" x2="172" y2="561.37" gradientTransform="translate(0 1001.31) scale(1 -1)" gradientUnits="userSpaceOnUse">
      <stop offset="0" stop-color="#e85618"/>
      <stop offset="1" stop-color="#ed6b13"/>
    </linearGradient>
    <linearGradient id="Dégradé_sans_nom_6" data-name="Dégradé sans nom 6" x1="269.18" y1="465.86" x2="269.18" y2="711.86" gradientTransform="translate(0 1001.31) scale(1 -1)" gradientUnits="userSpaceOnUse">
      <stop offset="0" stop-color="#f8aa2b"/>
      <stop offset="1" stop-color="#e24218"/>
    </linearGradient>
    <linearGradient id="Dégradé_sans_nom_7" data-name="Dégradé sans nom 7" x1="341.3" y1="476.4" x2="341.21" y2="467.29" gradientTransform="translate(0 1001.31) scale(1 -1)" gradientUnits="userSpaceOnUse">
      <stop offset="0" stop-color="#fec350"/>
      <stop offset="1" stop-color="#f48d09"/>
    </linearGradient>
    <linearGradient id="Dégradé_sans_nom_8" data-name="Dégradé sans nom 8" x1="342.16" y1="667.48" x2="342.14" y2="665.3" gradientTransform="translate(0 1001.31) scale(1 -1)" gradientUnits="userSpaceOnUse">
      <stop offset="0" stop-color="#fec350"/>
      <stop offset="1" stop-color="#f48d09"/>
    </linearGradient>
    <linearGradient id="Dégradé_sans_nom_9" data-name="Dégradé sans nom 9" x1="318.68" y1="913.63" x2="316.25" y2="666.53" gradientTransform="translate(0 1001.31) scale(1 -1)" gradientUnits="userSpaceOnUse">
      <stop offset="0" stop-color="#fec350"/>
      <stop offset="1" stop-color="#f48d09"/>
    </linearGradient>
    <linearGradient id="Dégradé_sans_nom_10" data-name="Dégradé sans nom 10" x1="543.62" y1="443.86" x2="543.62" y2="757.42" gradientTransform="translate(0 1001.31) scale(1 -1)" gradientUnits="userSpaceOnUse">
      <stop offset="0" stop-color="#067272"/>
      <stop offset="1" stop-color="#1d1d1b"/>
    </linearGradient>
  </defs>
  <g class="st7">
    <g class="st7">
      <g class="st7">
        <g class="st7">
          <g class="st7">
            <path class="st17" d="M87.09,687.82v-7.72l45.71-45.71c2.22.2,4.34.66,6.36,1.36l.15-.15v.15l-52.22,52.07ZM87.24,689.03l52.98-52.98c1.01.4,1.99.86,2.95,1.36.96.51,1.84,1.01,2.65,1.51l-25.73,25.73h-3.94c-.3,0-.45.15-.45.45v3.93l-5,5h-.15l-23.31,23.31v-8.33ZM87.39,668.6v-6.66l27.7-27.7h6.66l-34.36,34.36ZM87.39,697.96l28.61-28.61v6.66c0,.3.15.45.45.45h11.2c1.61,0,2.95-.66,4.01-1.97,1.06-1.31,1.59-2.77,1.59-4.39,0-2.42-.93-4.01-2.8-4.77-1.87-.76-3.81-1.13-5.83-1.13h-3.63l25.28-25.28c2.52,1.72,4.64,3.58,6.36,5.6l-.15.15c6.15,6.76,9.23,15.09,9.23,24.97,0,4.44-.76,8.78-2.27,13.02-1.51,4.24-3.63,8.02-6.36,11.35s-6.03,6-9.91,8.02c-3.89,2.02-8.2,3.03-12.94,3.03h-14.08c-.3,0-.45.15-.45.45v34.21c0,.3-.15.45-.45.45h-27.4c-.3,0-.45-.15-.45-.45v-41.78ZM106.46,634.09h6.21l-24.97,24.97v-6.21l18.77-18.77ZM97.53,634.09l5.45.15-15.29,15.29v-5.6l9.84-9.84ZM87.7,678.28v-7.27l36.63-36.63h6.96l.45-.15-44.05,44.05Z"/>
            <path class="st17" d="M173.82,689.33l56-56c1.92.3,4.14.86,6.66,1.67l-61.91,61.91c-.2-1.21-.35-2.45-.45-3.71-.1-1.26-.2-2.55-.3-3.86ZM174.58,680.25l47.38-47.38h.91c2.12,0,4.19.15,6.21.45l-54.94,54.94v-.91c0-2.42.15-4.79.45-7.11ZM174.43,678.13c.2-1.61.48-3.2.83-4.77.35-1.56.78-3.1,1.29-4.62l34.51-34.51c2.72-.71,5.55-1.16,8.48-1.36l.45-.15-25.88,25.73-19.68,19.68ZM174.73,697.66l62.66-62.66c7.27,2.62,13.82,7.17,19.68,13.62l.15.15c9.48,10.39,14.23,23.21,14.23,38.45s-4.74,28.05-14.23,38.45c-9.59,10.59-21.09,15.89-34.51,15.89-6.16,0-11.96-1.19-17.41-3.56-5.45-2.37-10.29-5.55-14.53-9.54-4.24-3.99-7.75-8.63-10.52-13.92-2.78-5.3-4.62-10.92-5.52-16.88ZM177.61,665.27c1.31-3.33,3-6.56,5.07-9.69,2.07-3.13,4.39-6.03,6.96-8.7,2.57-2.67,5.42-5.04,8.55-7.11,3.13-2.07,6.41-3.71,9.84-4.92l-30.42,30.42ZM222.86,712.95c3.23,0,6.03-.78,8.4-2.35,2.37-1.56,4.34-3.56,5.9-5.98,1.56-2.42,2.72-5.12,3.48-8.1.76-2.98,1.14-5.83,1.14-8.55s-.4-5.55-1.21-8.48c-.81-2.93-1.99-5.65-3.56-8.17-1.57-2.52-3.53-4.59-5.9-6.21-2.37-1.61-5.12-2.42-8.25-2.42s-5.88.81-8.25,2.42c-2.37,1.62-4.34,3.68-5.9,6.21-1.57,2.52-2.75,5.25-3.56,8.17-.81,2.93-1.21,5.75-1.21,8.48s.38,5.58,1.13,8.55c.76,2.98,1.92,5.68,3.48,8.1,1.56,2.42,3.53,4.42,5.9,5.98,2.37,1.57,5.17,2.35,8.4,2.35Z"/>
          </g>
        </g>
      </g>
    </g>
    <g class="st7">
      <g class="st7">
        <g class="st7">
          <g class="st7">
            <path class="st17" d="M285.82,652.1l17.86-17.86h4.54l-22.4,22.4v-4.54ZM294.75,634.24h4.09l-13.02,13.02v-4.09l8.93-8.93ZM312.79,634.24l5.15-.15-30.27,30.27h-1.21c-.3,0-.45-.15-.45-.45v-2.88l26.79-26.79ZM321.92,634.09l5.45.15-30.12,30.12h-5.6l30.27-30.27ZM330.76,634.24h6.21l-30.42,30.42h-6.21l30.42-30.42ZM309.44,664.51l30.12-30.12h6.66l-33.75,33.75.15-3.18c0-.3-.15-.45-.45-.45h-2.72ZM312.46,696.6v-8.32l53.73-53.58h.61l.45-.45c.3,0,.45.15.45.45v6.81l-23.01,23.01h-3.18c-.3,0-.45.15-.45.45v3.18l-28.61,28.46ZM312.61,679.19l44.95-44.95h7.72l-52.67,52.67v-7.72ZM312.61,670.26l35.87-35.87h7.27l-43.14,43.14v-7.27ZM312.61,697.2l28.46-28.3v70.84c0,.3-.15.45-.46.45h-27.54c-.31,0-.46-.15-.46-.45v-42.53ZM367.56,642.26v21.8c0,.3-.15.45-.45.45h-21.8l22.25-22.25Z"/>
          </g>
        </g>
      </g>
    </g>
    <g class="st7">
      <g class="st7">
        <g class="st7">
          <g class="st7">
            <path class="st17" d="M396.32,635l-15.14,15.14v-5.6l9.54-9.54h5.6ZM409.79,669.05l-28.46,28.46v-8.33l54.64-54.64h8.33l-30.42,30.42h-3.63c-.3,0-.45.15-.45.45v3.63ZM425.08,634.84l-43.59,43.59v-7.27l36.33-36.33h7.27ZM415.69,634.54l-34.06,34.06v-6.66l27.4-27.4h6.66ZM435.22,634.39l-53.28,53.28v-7.72l45.56-45.56h7.72ZM450.35,710.07c.3,0,.45.15.45.45v29.21c0,.3-.15.45-.45.45h-67.96c-.3,0-.45-.15-.45-.45v-41.93l28.46-28.46v4.84c0,.3.15.45.45.45h20.74c.3,0,.45.15.45.45v23.31c0,.3-.15.45-.45.45h-20.74c-.3,0-.45.15-.45.45v9.99c0,.3.15.45.45.45h39.66l-.15.3ZM406.76,634.09l-24.67,24.67v-6.21l18.47-18.47h6.21ZM450.5,634.09c.3,0,.45.15.45.45v29.21c0,.3-.15.45-.45.45h-35.27l30.12-30.12h5.15Z"/>
          </g>
        </g>
      </g>
    </g>
    <g class="st7">
      <g class="st7">
        <g class="st7">
          <g class="st7">
            <path class="st17" d="M465.79,707.5c1.51-.2,3.61-.48,6.28-.83,2.67-.35,5.35-.73,8.02-1.13,2.67-.4,5.07-.78,7.19-1.14,2.12-.35,3.43-.58,3.94-.68h.45c3.53,2.42,6.51,4.39,8.93,5.9,2.42,1.51,4.94,2.52,7.57,3.03,2.12.3,4.09.3,5.9,0,5.35-.81,7.77-2.57,7.26-5.3-.3-1.82-3.18-3.28-8.63-4.39l-18.16-3.78c-5.45-1.01-10.24-3.28-14.38-6.81l12.56-12.56,10.14-9.99c.91.2,2.65.56,5.22,1.06,2.57.51,5.17,1.01,7.8,1.51,1.61.4,3.28.76,4.99,1.06,1.71.3,3.53.61,5.45.91,6.46,1.31,11.68,3.84,15.67,7.57,3.98,3.73,6.73,8.02,8.25,12.87s1.76,9.99.76,15.44c-1.01,5.45-3.28,10.55-6.81,15.29-1.92,2.52-4.16,4.77-6.74,6.74-2.57,1.97-5.37,3.61-8.4,4.92-3.03,1.31-6.18,2.32-9.46,3.03-3.28.71-6.64,1.06-10.06,1.06-4.64,0-9.23-.66-13.77-1.97-4.54-1.31-8.81-3.33-12.79-6.05-3.99-2.72-7.49-6.15-10.52-10.29-3.03-4.14-5.35-9.08-6.96-14.83-.1-.4,0-.61.3-.61ZM468.67,667.99l34.66-34.66c2.22-.3,4.59-.45,7.11-.45l-41.02,41.02c-.2-.81-.3-1.26-.3-1.36-.3-1.51-.45-3.03-.45-4.54ZM470.18,657.7l21.19-21.19h-.15c2.72-1.01,5.6-1.82,8.63-2.42l-31.03,31.03c.1-2.52.55-5,1.36-7.42ZM512.71,633.18h1.82c.81.1,1.56.2,2.27.3.71.1,1.46.25,2.27.45l-47.22,47.22c-.81-1.82-1.41-3.58-1.82-5.3l42.68-42.68ZM472.15,682.67l47.98-47.98c1.92.51,3.88,1.11,5.9,1.82l-51.01,51.01-2.88-4.84ZM475.63,687.97l22.86-22.86v1.36c.2.91.63,1.59,1.29,2.04s1.49.78,2.5.98l-22.55,22.55c-1.51-1.21-2.88-2.57-4.09-4.09ZM502.27,661.48l24.97-24.97c1.82.81,3.63,1.72,5.45,2.72l-21.49,21.49c-1.62-.3-3.53-.3-5.75,0-.51.1-1.04.2-1.59.3-.56.1-1.09.25-1.59.45ZM511.65,661.18l21.34-21.34c4.03,2.52,7.62,5.6,10.75,9.23,3.13,3.63,5.35,7.72,6.66,12.26.1.4,0,.61-.3.61l-29.52,4.39c-.2,0-.35-.05-.45-.15v.15c-1.51-1.31-2.95-2.4-4.31-3.25-1.36-.86-2.75-1.49-4.16-1.89Z"/>
          </g>
        </g>
      </g>
    </g>
  </g>
  <g>
    <g class="st7">
      <g class="st7">
        <g class="st7">
          <g class="st7">
            <g class="st7">
              <path class="st17" d="M142.58,804.44v-6.21l18.47-18.47h6.21l-24.67,24.67ZM142.73,885.12v-42.08l28.3-28.46v40.26c0,.3.15.45.45.45h48.74v.15c.3,0,.45.15.45.45v29.21c0,.3-.15.45-.45.45h-77.04c-.3,0-.45-.15-.45-.45ZM152.37,779.47l5.72-.15-15.2,15.29v-5.6l9.48-9.54ZM143.04,813.52v-6.66l27.55-27.7h.45c.3,0,.45.15.45.45v5.15l-28.46,28.76ZM143.04,832.44v-7.72l28.3-28.46v7.72l-28.3,28.46ZM143.19,833.35l28.46-28.61-.15,8.48-28.31,28.46v-8.32ZM143.34,822.45v-7.27l28.46-28.61v7.26l-28.46,28.61Z"/>
              <path class="st17" d="M234.46,842.89v-8.33l28.3-28.3v8.32l-28.3,28.3ZM234.61,798.54l18.62-18.62,6.05.15-24.67,24.67v-6.21ZM234.76,807.32l27.55-27.55h.3c.3,0,.45.15.45.45v5.45l-28.3,28.3v-6.66ZM234.76,789.46l9.54-9.54,5.75-.15-15.29,15.29v-5.6ZM263.21,787.79v7.26l-28.15,28.15-.3-6.96,28.46-28.46ZM234.76,843.19l28.3-28.3v70.23c0,.3-.15.45-.45.45h-27.4c-.3,0-.45-.15-.45-.45v-41.93ZM234.91,832.9v-7.72l28.46-28.46v7.72l-28.46,28.46Z"/>
              <path class="st17" d="M276.99,786.58l6.96-6.96,4.09-.15-9.84,9.84-1.21-2.72ZM279.86,792.64l13.17-13.17h4.54l-16.35,16.35-1.36-3.18ZM301.96,779.47h5l-23.01,23.01-1.51-3.48,19.53-19.53ZM285.01,805.35l23.01-23.01,1.67,3.94-23.01,23.01-1.67-3.94ZM310.89,788.55l1.66,4.39-22.7,22.7-1.82-4.24,22.86-22.86ZM290.76,817.91l22.55-22.55,1.97,4.84-22.4,22.4-2.12-4.69ZM315.89,801.72l1.97,5.3-22.1,22.1-2.27-5,22.4-22.4ZM295.91,830.32l22.1-22.1,2.12,5.6-21.8,21.95-2.42-5.45ZM298.63,836.53l21.8-21.8,2.27,6.05-21.49,21.49-2.57-5.75ZM301.66,842.74l21.19-21.19.15.15c.1.2.25.3.45.3s.35-.1.45-.3v-.15l.61-1.67,39.96-39.96h7.72l.3-.15c.4,0,.55.2.45.61l-46.17,104.89c-.2.2-.36.3-.45.3h-5.45c-.1,0-.25-.1-.45-.3l-18.77-42.53ZM324.66,818.97l5-13.32,25.73-25.73h8.33l-39.05,39.05ZM335.71,790.97l11.2-11.2h7.72l-23.61,23.61,4.69-12.41ZM336.32,788.4l3.03-8.02c0-.2.1-.3.3-.3l5.15-.15-8.48,8.48Z"/>
            </g>
          </g>
        </g>
      </g>
      <g class="st7">
        <g class="st7">
          <g class="st7">
            <g class="st7">
              <path class="st17" d="M401.86,780.38l-15.14,15.14v-5.6l9.54-9.54h5.6ZM415.33,814.43l-28.46,28.46v-8.33l54.64-54.64h8.33l-30.42,30.42h-3.63c-.3,0-.45.15-.45.45v3.63ZM430.62,780.22l-43.59,43.59v-7.27l36.33-36.33h7.27ZM421.23,779.92l-34.06,34.06v-6.66l27.4-27.4h6.66ZM440.76,779.77l-53.28,53.28v-7.72l45.56-45.56h7.72ZM455.89,855.45c.3,0,.45.15.45.45v29.21c0,.3-.15.45-.45.45h-67.96c-.3,0-.45-.15-.45-.45v-41.93l28.46-28.46v4.84c0,.3.15.45.45.45h20.74c.3,0,.45.15.45.45v23.31c0,.3-.15.45-.45.45h-20.74c-.3,0-.45.15-.45.45v9.99c0,.3.15.45.45.45h39.66l-.15.3ZM412.3,779.47l-24.67,24.67v-6.21l18.47-18.47h6.21ZM456.04,779.47c.3,0,.45.15.45.45v29.21c0,.3-.15.45-.45.45h-35.27l30.12-30.12h5.15Z"/>
            </g>
          </g>
        </g>
      </g>
      <g class="st7">
        <g class="st7">
          <g class="st7">
            <g class="st7">
              <path class="st17" d="M471.33,852.88c1.51-.2,3.61-.48,6.28-.83,2.67-.35,5.35-.73,8.02-1.13,2.67-.4,5.07-.78,7.19-1.14,2.12-.35,3.43-.58,3.94-.68h.45c3.53,2.42,6.51,4.39,8.93,5.9,2.42,1.51,4.94,2.52,7.57,3.03,2.12.3,4.09.3,5.9,0,5.35-.81,7.77-2.57,7.27-5.3-.3-1.82-3.18-3.28-8.63-4.39l-18.16-3.78c-5.45-1.01-10.24-3.28-14.38-6.81l12.56-12.56,10.14-9.99c.91.2,2.65.56,5.22,1.06,2.57.51,5.17,1.01,7.79,1.51,1.61.4,3.28.76,5,1.06,1.71.3,3.53.61,5.45.91,6.46,1.31,11.68,3.84,15.67,7.57,3.99,3.73,6.74,8.02,8.25,12.87s1.76,9.99.76,15.44c-1.01,5.45-3.28,10.55-6.81,15.29-1.92,2.52-4.16,4.77-6.74,6.74-2.57,1.97-5.37,3.61-8.4,4.92-3.03,1.31-6.18,2.32-9.46,3.03-3.28.71-6.64,1.06-10.07,1.06-4.64,0-9.23-.66-13.77-1.97s-8.8-3.33-12.79-6.05c-3.99-2.72-7.49-6.15-10.52-10.29-3.03-4.14-5.35-9.08-6.96-14.83-.1-.4,0-.61.3-.61ZM474.21,813.37l34.66-34.66c2.22-.3,4.59-.45,7.11-.45l-41.02,41.02c-.2-.81-.3-1.26-.3-1.36-.3-1.51-.45-3.03-.45-4.54ZM475.72,803.08l21.19-21.19h-.15c2.72-1.01,5.6-1.82,8.63-2.42l-31.03,31.03c.1-2.52.55-5,1.36-7.42ZM518.25,778.56h1.82c.81.1,1.56.2,2.27.3.71.1,1.46.25,2.27.45l-47.22,47.22c-.81-1.82-1.41-3.58-1.82-5.3l42.68-42.68ZM477.69,828.05l47.98-47.98c1.92.51,3.88,1.11,5.9,1.82l-51.01,51.01-2.88-4.84ZM481.17,833.35l22.86-22.86v1.36c.2.91.63,1.59,1.29,2.04.66.45,1.49.78,2.5.98l-22.55,22.55c-1.51-1.21-2.88-2.57-4.09-4.09ZM507.81,806.86l24.97-24.97c1.82.81,3.63,1.72,5.45,2.72l-21.49,21.49c-1.62-.3-3.53-.3-5.75,0-.51.1-1.04.2-1.59.3-.56.1-1.08.25-1.59.45ZM517.19,806.56l21.34-21.34c4.04,2.52,7.62,5.6,10.75,9.23,3.13,3.63,5.35,7.72,6.66,12.26.1.4,0,.61-.3.61l-29.51,4.39c-.2,0-.35-.05-.45-.15v.15c-1.51-1.31-2.95-2.4-4.31-3.25-1.36-.86-2.75-1.49-4.16-1.89Z"/>
            </g>
          </g>
        </g>
      </g>
    </g>
    <g>
      <path class="st8" d="M77.01,886.76v-16.55c0-11.91,8.83-20.07,22.38-20.07s22.38,8.16,22.38,20.07v16.55s-44.76,0-44.76,0ZM113.27,870.64c0-7.22-5.31-11.96-13.88-11.96s-13.88,4.74-13.88,11.96v7.7h27.75v-7.7h0Z"/>
      <path class="st8" d="M113.46,808.38h8.31v32.83h-44.76v-32.83h8.31v24.45h9.72v-22.43h8.06v22.43h10.36v-24.45h-.01.01Z"/>
    </g>
  </g>
  <g>
    <g>
      <path class="st5" d="M415.03,557.04c-1,1.85-4.38,7.74-3.96,9.37.82,1.07,3.18,2.7,4.37,2.99.45.11,8.21-.68,9.09-.9,2.05-.5,4.07-3.33,6.74-2.46.92-.95-5.66-12.23-6.1-14.47-.95-4.8,1.73-15.16,4.53-18.97,1.79-2.44,5.2-4.08,8.61-4.67v-78.01c-.36,2.26-.78,4.25-1.22,4.97-.67,1.12-1.83,1.88-2.6,3.18-1.47,2.52-2.33,6.39-1.56,9.32.6,2.31,4.3,2.89,4.59,5.29.99,7.87-1,20.52-2.53,28.47-3.62,18.77-11.12,39.59-19.95,55.88h-.01,0Z"/>
      <path class="st5" d="M389.86,497.24c1.1,2.11,3.53,5.12,3.33,7.62-.11,1.43-1.27,1.85-1.5,2.72-.76,2.76.94,6.9,3,8.57v.86c-3.65,2.06-3.45,4.58-2.29,8.66l-1.45.58c-.24,1.73-.63,3.37-1.12,4.97v4.18l7.6-7.52c.76-5.27,4.42-6.19,5.67-11.9,1.48-6.81,2.3-7.19,4.66-13.03,2.64-6.54,2.29-11.37,3.29-18.04.74-4.98,2.68-12.01,2.95-16.68.06-1-.79-1.82-.63-2.87,6.47.53,4.82-.53,5.46-5.63.12-.92.69-1.77.75-2.64.48-7.07,5.27-37.91,6.35-40.39,0,0,.72-4.64,2.64-3.95s-.14,9.81.41,14.86l.52-.12s.92-8.33,1.19-11.66.38-5.49,1.59-5.66c.58-.08,1.79,0,2.12.77.37.85-.58,13.59-.05,17.3,0,0,1.36-.43,2.33.14s.43,1.61,1.07,2.63c.06.1.28.24.57.4V152.74c0-15.74-10.22-28.5-22.84-28.5h-2.8c-12.61,0-22.84,12.76-22.84,28.5v344.45s.01.04.02.05h0Z"/>
    </g>
    <path class="st9" d="M77.05,520.17l6.37,12.87c-.29,1.31.89,4.6.44,6.93-.58,3.03-2.01,4.83-2.95,7.2-.93,2.34-1.91,6.57-3.33,8.44-.73.97-2.53,1.6-4.24,2.27v13.43c.53-.4.95-.75,1.13-.93,1.29-1.3,1.75-2.88,2.72-3.91,1.3-1.38,4.47-2.43,5.46-3.46,1.04-1.08,2.13-6.05,4.23-8.31,2.58-2.77,6.97-2.98,9.42-6.04l-.43-9.55-2.29.85c.02-3.39-5.32-1.59-5.58-5.98-.47-.27-1,0-1.47-.08l-.81-8.2c-.16-2.47.38-5.33-.1-7.71-.5-2.52-5.26-8.18-5.37-9.69-.1-1.47.87-3.5,1.6-4.78.77-1.34,2.24-2.65,3.01-4.02,1.79-3.24,5.09-12.01,7.12-13.76,5.19-4.47,13.77-6.85,20.22-5.66.02,0,.06.1.11.21v-165.7c0-12.7-8.25-23-18.43-23h-2.12c-10.18,0-18.43,10.3-18.43,23v203.5l3.7,2.07h.02Z"/>
    <g>
      <path class="st11" d="M132.42,550.4l-.76-7.8c-1.21-.21-.67,1.32-1.53,2.19-1.31,1.35-3.21,1.6-4.69.41v2.59h0l2.38.41c.93,2.8,2.15,3.17,4.61,2.2h0Z"/>
      <path class="st11" d="M112.79,480.77c5.79,1.37,9.36,3.81,13.84,7.98,0,1.95,1.49,3.34,1.92,4.37,1.45,3.47,2.15,7.2,4.01,10.72.85,1.59,4.32,5.78,4.46,6.32.28,1.11-.1,2.36.11,3.35.53,2.5,1.79,4.66,1.6,7.35.47.26,1.15-.09,1.49.05.06.02.14.54.57.69,4.94,1.68,8.6,3.31,12.66,7.13,2.2,2.07,2.39,6.7-1.17,6.09-.69-.12-.17-1.05-.54-1.53-.3-.4-1.23-.48-1.81-1.05-3.39-3.34-6.53-7.15-11.59-6.92-3.85,3.61-1.88,9.1-4.27,13.41,3.02,2.19,8.3,7.4.71,4.76l1.53,6.55.46.38c1.35-1,9.26-1.21,9.61-.73.17.24-.06,1.03.22,1.4.56.73,3.65,2.35,4.51,3.27,1.14,1.22,1.48,2.35,3.12,3.9.23.22.83.2,1.17.83.64,1.18,1.63,5.14,2.73,7.3v-111.31c-.64-1.2-1.22-2.45-1.56-3.59,0,0-.47-.68-1.27-2.56-.18-.42-.43-.95-.59-1.38-.1-.25-.45-1.34-.54-1.59-.15-.45.09-1.34.42-2.1.68-1.56.89-3.38.99-3.83.22-.93,1.47.27,1.81,1.41s.65,3.73.34,4.26c.16.15.29.31.4.47v-17.13c-.2-1-.27-1.65-.18-2.05-.13-.46-.02-.84.18-1.12v-198.26c0-14.93-9.7-27.03-21.66-27.03h-2.49c-11.96,0-21.66,12.1-21.66,27.03v252.7c.09.18.22.41.47.47h0Z"/>
    </g>
    <g>
      <path class="st4" d="M158.52,567.06c.26.39.53.66.8.74,2.04-.64,3.04-2.05,5.4-1.74,2.41.32,3.9,3.39,6.62,1.75l-.89-5.08c-2.67-.41-3.73-2.5-5.33-4.47.17-1.59-1.18-2.76-1.43-4.05-.41-2.05-1.09-10.83-.88-12.86.29-2.78,2.84-9.06,2.24-11.22-.13-.45-.67-.44-.71-.52l-.4-9.56c1.55-2.77,3.41,1.96,3.93,3.45.63,1.78-.1,4.63,2.69,4.38l-.78-7.37,3.12-1.76c-1.44-4.55-.33-9.31-.79-13.86-.38-3.75-2.32-7.86-3.09-10.87-2.47-9.65-2.7-18.96-4.83-28.03-.79-3.37-2.27-4.27-2.95-5.83-.08-.18-1.72-2.48-3.1-5.07v106.91c0,1.73.14,3.42.38,5.06h0Z"/>
      <path class="st13" d="M160.15,448.1c.5.36.42-.85.65-1.77.87-3.35-.86-8.91-1.35-11.41-.34-1.69-.71-3.24-1.02-4.54-.12-.5-.21-.93-.29-1.31v17.1c.45.65.55,1.33.55,1.33,0,0,.96.24,1.46.6h0Z"/>
      <path class="st12" d="M158.68,425.47c.75-.16,1.82.8,1.82.8.92.87,1.11,2.51,1.51,3.69.52,1.53.72,2.23,1.07,3.86.38,2.53,1,3.7,1.54,6.11,0,0-.19.19.22.09.18-.04.17-1.37-.11-4.35s-.26-3.44-.61-5.1-.3-4.2-.34-5.16c-.05-.96-.26-1.98.37-2.98.62-1,1.49-.16,1.9.08.48.29.69,1.7.77,2,.36,1.38.6,3.09.76,4.82.18,2.01.72,3.84.75,5.4.03,1.65.49,5.46.49,5.46l.12-.6.14-5.35-.95-6.61-.26-1.96s-.26-1.34.19-2.12c.46-.78.89-.54,1.29-.35s.78,1.68.78,1.68l1.83,9.35c-.13-.95-.37-3.71-.49-4.51-.11-.81,0-.96.22-1.2.22-.24.58-.14.95.05.36.19.71.9,1.03,2.29.67,2.93.52,10.7.79,11.07.02,1.79.06,3.08.06,4.1,0,1.22-.85,10.53-1.34,14.83l12.96,32.29,3.89,12.15c.31,2.08,1.55,7.01,1.55,8.25,0,1.51-1.54,3.88-.67,5.97l4.44,4.59c3.51,12.47,3.08,24.41,8.6,35.95v-280.86c0-14.93-9.7-27.03-21.66-27.03h-2.49c-11.96,0-21.66,12.1-21.66,27.03v146.65c.15-.2.34-.34.54-.38h0Z"/>
      <path class="st14" d="M171.97,439.43v1.39c.12.15,0-.48,0-1.39Z"/>
    </g>
    <path class="st2" d="M249.2,465.34l3.05.07c.61,3.13,2.52,5.71,3.56,8.62,2.04,5.73,2.35,11.58,3.86,17.4,1.72,6.62,5.18,12.76,7.05,19.05.91,3.04,2.37,13.87,4.21,15.27.83.63,1.75.52,2.67.29l5.19-3.85c-1.81-4.87-3.17-12.36-6.62-16.05-1.23-1.31-4.75-3.33-5.72-4.46-.11-.13-1.27-2.93-1.35-3.27-.51-2.16-.14-3.73-.36-5.67-.34-2.94-1.18-5.26-.76-8.7.33-2.69,2.29-3.78,3.28-5.89,1.54-3.28,3.14-8.99,4.9-11.89,2.4-3.94,8.02-8.75,12.34-6.17,1.51-1.83,4.92-4.13,7.59-4.8v-247.5c0-14.93-9.7-27.03-21.66-27.03h-2.49c-11.96,0-21.66,12.1-21.66,27.03v244.24c.99,4.41,1.81,9.04,2.92,13.31h0Z"/>
    <g>
      <path class="st17" d="M204.95,562.03c.39.72,2.31,4.03,2.6,4.04,1.37-.88.91-1.94,1.16-3.04,1.21-5.38,1.35-14.09,2.45-18.1.25-.9,1.48-1.37,1.49-2.72,0-1.21-2.34-7.72-2.39-10.44-.02-1,1.76-4.52,2.18-6.25.46-1.91,1.09-5.75.98-7.66-.24-3.99-4.23-7.39-5.34-11.41-.38-1.39-.56-3.17-.83-4.94-.13-.82.69-1.34,1.23-2.19.64-.99,1.04-2.26,1.04-2.26-1.04-4.06-4.15-9.6-2.34-13.73,0,0,1.83-1.56,2.3,0s3.73,12.09,3.73,12.09c0,0,.42.03.99.07.87.14.75-.6.75-.6,0,0-1.95-9.6-1.45-11.66.3-1.25,1.88-2.03,2.68-.52,1.07,1.98,2.44,4.87,3.01,7,1.04,3.86,3.91,9.19,4.3,12.56,1.31,11.37-2.2,16.28,4.02,27.63,2.44,4.45,6.11,6.78,6.87,12.3.22,1.63-.29,3.55.11,5.09.37,1.42,3.06,2.87,3.66,4.6.23.67.06,1.61.29,2.28.94,2.83,1.79,5.31,2.18,8.42,2.2,2.82,3.21-8.56,3.09-9.97-.5-5.73-3.12-13.98-3.13-19.11-.02-3.81,2.42-5.54,2.4-6.93-.05-3.83-4.01-11.13-5.11-15.18-1.21-4.39-2.55-10.3,1.01-13.46-.9-7.55-4.58-16.12-5.24-23.49-.37-4.14.45-8.96-.03-12.99-.29-2.47-1.8-5.92-2.31-8.71-.48-2.66-.34-6.66-.92-9.39-.85-4.01-3.9-8.24-5.32-11.86-1.33-3.39-5.07-12.9-4.7-16.07.22-1.93,1.95-2.33,2.28-3.57,1.34-5.1-1.59-7.48,7.12-7.8.07-1.3-.46-7.07-.56-8.39-.11-1.5-.28-2.87-.42-4.28-.07-.74.75-2.52,1.19-2.62,1.32-.3,2.45-.37,2.71.76.34,1.5.76,10.67,2.09,13.35.75,1.5.89,4.95,1.22,4.24.83-1.79,3.28-8.81,5.45-7.44.99.86.26,2.11.03,3.23-.66,3.2-2.76,12.94-2.41,16.02.34,2.95-.43,6.55.14,9.4,1.16,5.82,4.53,13.79,6.11,19.67.35,1.31.67,2.66.98,4.03v-183.65c0-13.79-8.96-24.97-20.01-24.97h-2.31c-11.05,0-20.01,11.18-20.01,24.97v286.92c0,2.02.2,3.99.56,5.88.15.28.28.57.43.85h0Z"/>
      <path class="st17" d="M219.21,567.76c-.42-1.02-.82-2.38-1.96-2.59l.43,13.84c1.86.77,3.84,1.2,5.9,1.25-1.44-4.18-2.69-8.47-4.37-12.5h0Z"/>
    </g>
    <g>
      <path class="st0" d="M340.23,540.03c.72.11,1.39.09,2.04-.02v-16.16c-.97,4.99-2.83,15.23-2.04,16.17h0Z"/>
      <path class="st16" d="M342.02,336.89c.04.19.13.38.25.56v-3.88c-.2,1.12-.36,2.76-.25,3.31h0Z"/>
      <path class="st10" d="M293.79,455.11c1.62.15,3.04,1.85,4.17,2.28,3.62,1.38,5.79.43,9.2,3.62,3.88,3.63,3.42,7.09,2.73,12.14l4.55,1.87.9,3.84-3.06,6.92c.33,1.41,2.7,1.97,2.92,2.28.31.45,1,4.6.91,5.5-.14,1.34-.97,2.31-1.41,3.48l1.78,3.04c3.13-4.07,4.41-9.08,6.21-13.9,2.48-6.6,2.89-9.09,4.46-15.86,1.35-5.82,5.18-8.62,5.95-11.59.45-1.72-.06-4.03.13-5.94,1.03-10.45,3.53-20.9,4.64-31.29.78-7.29.26-14.46.76-21.73.26-3.81,1.51-7.57,1.59-11.68l2.03-3.39h.02v-36.51c-.61-.7-1.24-1.41-1.69-2-1.07-1.38-2.29-7.97-2.1-10.58s.85-3.97,1.19-5.81,2.32-.64,2.52,1.42c.01.12.04.4.07.72v-9.91c-.23-.67-.42-1.22-.46-1.58-.05-.45.04-.94.46-1.19V88.38c0-16.1-10.46-29.15-23.36-29.15h-3.38c-12.9,0-23.36,13.05-23.36,29.15v366.89c.59-.14,1.14-.2,1.63-.16h0Z"/>
    </g>
    <g>
      <path class="st8" d="M343.32,338.54c.22.47,1.14.42,1.51-1.09.18-.69.06-2.82-.2-5.01-.2-1.66-.71-2.88-.82-4.5-.31-1.1-.68-2.49-.99-4.15-.19-.66-.39-1.24-.57-1.76v9.91c.05.51.09,1.14.03,1.46-.01.06-.02.13-.03.19v3.88c.39.61,1.06,1.09,1.06,1.09v-.02h.01Z"/>
      <path class="st8" d="M345.39,384.59c-.23-4.4.86-8.67.58-13.03-.32-5.12-.41-16.49-1.89-20.81-.23-.68-1-1.62-1.81-2.56v36.51l3.13-.11h-.01,0Z"/>
      <path class="st8" d="M343.48,319.12c.63.2,1.63,1.57,2.36,3.4.5,1.26,2.11,6.8,2.75,9.03.58.3,1.65-.67,2.2-.48.71.25.87.9,1.51,1.28.19.11.97-.63,1.17-.52.56.3.67,1.01,1.1,1.56.18.24.22-.38.91-.05s.54,1.33.83,1.67c.34.41,1.26,11.61,1.18,12.84s-1.18,3.01-1.06,3.87c.19,1.49-.32,30.62,1.25,34.02.33.71,3.1,2.15,3.73,3.47,2.6,5.43.87,8.93.58,14.04-.14,2.41.24,5.03.03,7.42-.84,9.56-4.42,18.77-5.43,27.36-.99,8.42.28,17.72-.78,26.91-2.02,17.61-9.34,38.6-13.08,56.6-.09.45-.26,1.27-.46,2.32v16.16c5.26-.85,8.43-7.73,14.61-4.39,2.61-.62,2.52-6.78,1.29-8.94-.47-.83-1.4-.65-1.99-1.38-2.12-2.64-3.93-14.14-3.49-17.81.61-5.09,2.76-8.97,6.16-12.28l-.37-4.68c.83-1.49,5.42-4.94,7.04-5.19,2.53-.39,5.38.68,7.81-.62,1.82,1.62,4.07,2.09,6.09,3.34,1.25.77,2.02,2.41,3.57,2.96,2.35.84,4.22-.13,5.87,3,.5.95.5,2.19.97,3.15v-181.46c0-15.21-9.88-27.54-22.07-27.54h-3.42c-12.19,0-22.07,12.33-22.07,27.54v3.55c.26-.16.65-.23,1.22-.14h-.01Z"/>
      <path class="st8" d="M389.82,535.41v-4.17c-.75,2.43-1.76,4.75-2.91,7.04l2.91-2.88h0Z"/>
    </g>
    <g>
      <path class="st6" d="M415.03,557.04c-1,1.85-4.38,7.74-3.96,9.37.82,1.07,3.18,2.7,4.37,2.99.45.11,8.21-.68,9.09-.9,2.05-.5,4.07-3.33,6.74-2.46.92-.95-5.66-12.23-6.1-14.47-.95-4.8,1.73-15.16,4.53-18.97,1.79-2.44,5.2-4.08,8.61-4.67v-78.01c-.36,2.26-.78,4.25-1.22,4.97-.67,1.12-1.83,1.88-2.6,3.18-1.47,2.52-2.33,6.39-1.56,9.32.6,2.31,4.3,2.89,4.59,5.29.99,7.87-1,20.52-2.53,28.47-3.62,18.77-11.12,39.59-19.95,55.88h-.01,0Z"/>
      <path class="st6" d="M389.86,497.24c1.1,2.11,3.53,5.12,3.33,7.62-.11,1.43-1.27,1.85-1.5,2.72-.76,2.76.94,6.9,3,8.57v.86c-3.65,2.06-3.45,4.58-2.29,8.66l-1.45.58c-.24,1.73-.63,3.37-1.12,4.97v4.18l7.6-7.52c.76-5.27,4.42-6.19,5.67-11.9,1.48-6.81,2.3-7.19,4.66-13.03,2.64-6.54,2.29-11.37,3.29-18.04.74-4.98,2.68-12.01,2.95-16.68.06-1-.79-1.82-.63-2.87,6.47.53,4.82-.53,5.46-5.63.12-.92.69-1.77.75-2.64.48-7.07,5.27-37.91,6.35-40.39,0,0,.72-4.64,2.64-3.95s-.14,9.81.41,14.86l.52-.12s.92-8.33,1.19-11.66.38-5.49,1.59-5.66c.58-.08,1.79,0,2.12.77.37.85-.58,13.59-.05,17.3,0,0,1.36-.43,2.33.14s.43,1.61,1.07,2.63c.06.1.28.24.57.4v-65.86c0-15.35-9.97-27.8-22.28-27.8h-3.92c-12.3,0-22.28,12.45-22.28,27.8v131.63s.01.04.02.05h0Z"/>
    </g>
    <path class="st1" d="M439.79,432.35c.68.56.18,2.84.28,3.26.06,1.64-.41,3.93-.62,5.52-.17,1.36-.6,5.4-1.15,8.8v78.01c2.24-.39,4.48-.32,6.23.3,2.53.89,6.63,4.1,8.11,6.58.79,1.32,3.5,11.87,3.53,13.45.02,1.33-1.36,2.66-1.56,4.33-.25,1.98-.34,12.34.06,13.83.63,2.39,2.4.6,3.46.51,1.41-.11,2.83.08,4.23-.06l4.54-13.6c.94-11.27,8.34-19.7,12.45-29.52.02-.05.04-.09.06-.14v-204.29c0-13.16-8.55-23.83-19.1-23.83h-2.92c-10.55,0-19.1,10.67-19.1,23.83v112.1c.45.26,1.07.58,1.48.93h.02Z"/>
    <path class="st3" d="M485.35,506.99c1.79-4.67,2.56-4.71,3.06-9.96.53-5.66,2.87-9.2,5.47-13.88.33-.58,1.39-2.29,2.44-2.06.39.09.54.07,1.08.35s.4,1.52.4,1.52l.28-1.13s.71-1.24,1.73-1.35,1.84,1.63,1.84,1.63l.41,1.42c.19-2.22.75-4.58,1.44-6.67.34-1,1.24-2.95,1.92-4.59.38-.94,1.67-3.79,2.47-4.34.95-.66,1.63.3,1.78.5.31.4-.6,2.45-1.21,4.35-.18.88-1.79,4.56-1.83,5.17-.07,1.42-.66,3.16-.8,4.15-.15,1.04-.12,1.28.22,2.27,1.15-1.18,3.5-3.71,4.53-5.13s4.17-4.31,4.81-5.95c.38-.98,1.71-2.17,2.56-1.78s.38,2.21-.14,3.25c-.15.46-2.99,5.68-4.05,6.63-2.76,3.48-6.15,7.28-7.27,11.96-.18.75-.51,1.94-.02,2.41.32.31.6-.12.76-.22,1.65-1.06,2.72-2.78,4.21-4.1.83-.74,2.4-1.12,3.61-.99s2.07.9,1.92,1.47c-.17.63-.81,1.29-1.67,2.06-1.29,1.16-2.67,2.36-3.89,3.47-3.21,2.92-5.7,4.68-9.34,6.95-1.49.93-1.7.09-3.11,2.6-2.64,4.69-3.89,11.27-5.83,16.51-1.5,4.06-3.73,8.09-5.07,12.14-1.56,4.7-1.51,8.8-2.48,13.29-1.04,4.84-4.23,9.54-5.19,13.31-.51,2.02-.47,5.83-.89,8.12,3.63-.85,5.5,1.03,8.33,2.46.66.33,1.55,0,1.79.14,5.76,3.31,5.19,11.24,6.19,17.31-2.09.11-3.84,4.26-4.22,7.57,2.33,1.39,4.9,2.26,7.6,2.51.62-6.71,2.45-13.53,4.82-19.59,2.47-6.29,9.45-19.2,15.7-20.68,2.14-.51,3.6.26,4.93-.62V200.09c0-14.74-9.58-26.69-21.39-26.69h-2.46c-11.81,0-21.39,11.95-21.39,26.69v323.52c2.17-5.22,3.86-11.25,5.93-16.62h.02,0Z"/>
    <path class="st15" d="M526.38,557.1c.55-1.22,2.82-7.8,2.95-8.87.34-2.81-1.25-7.92-.69-11.11.07-.41,2.81-7.19,3.02-7.55s1.96-1.48,2.69-2.64c2.56-4.09,6.27-11.86,9.98-14.04,1.49-.88,8.05-2.97,9.65-3.11.83-.07,1.49.62,2.2.67,1.74.12,4.18.24,6.42.6v-196.83c0-12.37-8.04-22.4-17.95-22.4h-2.06c-9.91,0-17.95,10.03-17.95,22.4v245.25c.59-.39,1.15-1.09,1.73-2.37h.01Z"/>
  </g>
</svg>