<?xml version="1.0" encoding="UTF-8"?>
<svg id="Calque_1" xmlns="http://www.w3.org/2000/svg" version="1.1" xmlns:xlink="http://www.w3.org/1999/xlink" viewBox="0 0 1110.43 866.27">
  <!-- Generator: Adobe Illustrator 29.7.0, SVG Export Plug-In . SVG Version: 2.1.1 Build 138)  -->
  <defs>
    <style>
      .st0 {
        fill: url(#Dégradé_sans_nom_7);
      }

      .st1 {
        fill: #096463;
      }

      .st2 {
        fill: url(#Dégradé_sans_nom_6);
      }

      .st3 {
        fill: #078081;
      }

      .st4 {
        fill: url(#Dégradé_sans_nom_2);
      }

      .st5 {
        fill: #078080;
      }

      .st6 {
        opacity: .65;
      }

      .st6, .st7 {
        isolation: isolate;
      }

      .st6, .st8 {
        fill: #f69b23;
      }

      .st9 {
        fill: url(#Dégradé_sans_nom);
      }

      .st10 {
        fill: url(#Dégradé_sans_nom_9);
      }

      .st11 {
        fill: #e85618;
      }

      .st12 {
        fill: url(#Dégradé_sans_nom_4);
      }

      .st13 {
        fill: url(#Dégradé_sans_nom_3);
      }

      .st14 {
        fill: url(#Dégradé_sans_nom_5);
      }

      .st15 {
        fill: url(#Dégradé_sans_nom_10);
      }

      .st16 {
        fill: url(#Dégradé_sans_nom_8);
      }

      .st17 {
        fill: #faa020;
      }
    </style>
    <linearGradient id="Dégradé_sans_nom" data-name="Dégradé sans nom" x1="271.9" y1="663.69" x2="271.9" y2="518.69" gradientTransform="translate(0 945.39) scale(1 -1)" gradientUnits="userSpaceOnUse">
      <stop offset="0" stop-color="#e4471c" stop-opacity=".1"/>
      <stop offset="1" stop-color="#e4471c"/>
    </linearGradient>
    <linearGradient id="Dégradé_sans_nom_2" data-name="Dégradé sans nom 2" x1="362.61" y1="384.69" x2="362.61" y2="580.19" gradientTransform="translate(0 945.39) scale(1 -1)" gradientUnits="userSpaceOnUse">
      <stop offset="0" stop-color="#e85618"/>
      <stop offset="1" stop-color="#ed6b13"/>
    </linearGradient>
    <linearGradient id="Dégradé_sans_nom_3" data-name="Dégradé sans nom 3" x1="355.21" y1="501.89" x2="355.21" y2="511.24" gradientTransform="translate(0 945.39) scale(1 -1)" gradientUnits="userSpaceOnUse">
      <stop offset="0" stop-color="#e85618"/>
      <stop offset="1" stop-color="#ed6b13"/>
    </linearGradient>
    <linearGradient id="Dégradé_sans_nom_4" data-name="Dégradé sans nom 4" x1="381.98" y1="384.69" x2="381.98" y2="580.19" gradientTransform="translate(0 945.39) scale(1 -1)" gradientUnits="userSpaceOnUse">
      <stop offset="0" stop-color="#e85618"/>
      <stop offset="1" stop-color="#ed6b13"/>
    </linearGradient>
    <linearGradient id="Dégradé_sans_nom_5" data-name="Dégradé sans nom 5" x1="370.69" y1="506.5" x2="370.69" y2="507.2" gradientTransform="translate(0 945.39) scale(1 -1)" gradientUnits="userSpaceOnUse">
      <stop offset="0" stop-color="#e85618"/>
      <stop offset="1" stop-color="#ed6b13"/>
    </linearGradient>
    <linearGradient id="Dégradé_sans_nom_6" data-name="Dégradé sans nom 6" x1="491.97" y1="411.69" x2="491.97" y2="657.69" gradientTransform="translate(0 945.39) scale(1 -1)" gradientUnits="userSpaceOnUse">
      <stop offset="0" stop-color="#f8aa2b"/>
      <stop offset="1" stop-color="#e24218"/>
    </linearGradient>
    <linearGradient id="Dégradé_sans_nom_7" data-name="Dégradé sans nom 7" x1="581.93" y1="422.24" x2="581.84" y2="413.12" gradientTransform="translate(0 945.39) scale(1 -1)" gradientUnits="userSpaceOnUse">
      <stop offset="0" stop-color="#fec350"/>
      <stop offset="1" stop-color="#f48d09"/>
    </linearGradient>
    <linearGradient id="Dégradé_sans_nom_8" data-name="Dégradé sans nom 8" x1="583.03" y1="613.3" x2="583.01" y2="611.13" gradientTransform="translate(0 945.39) scale(1 -1)" gradientUnits="userSpaceOnUse">
      <stop offset="0" stop-color="#fec350"/>
      <stop offset="1" stop-color="#f48d09"/>
    </linearGradient>
    <linearGradient id="Dégradé_sans_nom_9" data-name="Dégradé sans nom 9" x1="553.38" y1="859.46" x2="550.95" y2="612.36" gradientTransform="translate(0 945.39) scale(1 -1)" gradientUnits="userSpaceOnUse">
      <stop offset="0" stop-color="#fec350"/>
      <stop offset="1" stop-color="#f48d09"/>
    </linearGradient>
    <linearGradient id="Dégradé_sans_nom_10" data-name="Dégradé sans nom 10" x1="834.47" y1="389.69" x2="834.47" y2="703.25" gradientTransform="translate(0 945.39) scale(1 -1)" gradientUnits="userSpaceOnUse">
      <stop offset="0" stop-color="#067272"/>
      <stop offset="1" stop-color="#1d1d1b"/>
    </linearGradient>
  </defs>
  <g>
    <g>
      <path class="st5" d="M673.99,555.29c-1.25,1.85-5.46,7.74-4.94,9.37,1.02,1.07,3.97,2.7,5.45,2.99.56.11,10.24-.68,11.34-.9,2.56-.5,5.08-3.33,8.41-2.46,1.15-.95-7.06-12.23-7.61-14.47-1.18-4.8,2.16-15.16,5.65-18.97,2.23-2.44,6.49-4.08,10.74-4.67v-78.01c-.45,2.26-.98,4.25-1.52,4.97-.84,1.12-2.29,1.88-3.24,3.18-1.83,2.52-2.91,6.39-1.95,9.32.75,2.31,5.36,2.89,5.73,5.29,1.23,7.87-1.25,20.52-3.16,28.47-4.52,18.77-13.88,39.59-24.9,55.88h0Z"/>
      <path class="st5" d="M642.57,495.49c1.37,2.11,4.41,5.12,4.16,7.62-.14,1.43-1.58,1.85-1.87,2.72-.95,2.76,1.17,6.9,3.75,8.57v.86c-4.55,2.06-4.31,4.58-2.86,8.66l-1.81.58c-.3,1.73-.78,3.37-1.4,4.97v4.18l9.49-7.52c.95-5.27,5.52-6.19,7.08-11.9,1.85-6.81,2.87-7.19,5.82-13.03,3.3-6.54,2.86-11.37,4.1-18.04.92-4.98,3.34-12.01,3.68-16.68.07-1-.99-1.82-.79-2.87,8.08.53,6.01-.53,6.81-5.63.15-.92.86-1.77.93-2.64.6-7.07,6.58-37.91,7.92-40.39,0,0,.9-4.64,3.29-3.95s-.18,9.81.51,14.86l.65-.12s1.15-8.33,1.48-11.66.47-5.49,1.98-5.66c.72-.08,2.23,0,2.65.77.46.85-.73,13.59-.06,17.3,0,0,1.7-.43,2.91.14s.54,1.61,1.33,2.63c.08.1.35.24.71.4V150.99c0-15.74-12.76-28.5-28.5-28.5h-3.49c-15.74,0-28.5,12.76-28.5,28.5v344.45s.02.04.03.05Z"/>
    </g>
    <path class="st9" d="M252.2,518.42l7.95,12.87c-.36,1.31,1.11,4.6.55,6.93-.73,3.03-2.51,4.83-3.68,7.2-1.16,2.34-2.38,6.57-4.15,8.44-.92.97-3.16,1.6-5.29,2.27v13.43c.66-.4,1.19-.75,1.41-.93,1.61-1.3,2.19-2.88,3.39-3.91,1.62-1.38,5.58-2.43,6.81-3.46,1.3-1.08,2.66-6.05,5.28-8.31,3.22-2.77,8.7-2.98,11.75-6.04l-.54-9.55-2.86.85c.02-3.39-6.64-1.59-6.96-5.98-.59-.27-1.25,0-1.83-.08l-1.01-8.2c-.2-2.47.47-5.33-.12-7.71-.62-2.52-6.57-8.18-6.7-9.69-.13-1.47,1.09-3.5,2-4.78.96-1.34,2.8-2.65,3.76-4.02,2.24-3.24,6.35-12.01,8.89-13.76,6.48-4.47,17.19-6.85,25.23-5.66.02,0,.07.1.14.21v-165.7c0-12.7-10.3-23-23-23h-2.64c-12.7,0-23,10.3-23,23v203.5l4.62,2.07h0Z"/>
    <g>
      <path class="st11" d="M321.3,548.65l-.95-7.8c-1.51-.21-.84,1.32-1.91,2.19-1.64,1.35-4,1.6-5.85.41v2.59h-.01l2.97.41c1.16,2.8,2.68,3.17,5.75,2.2h0Z"/>
      <path class="st11" d="M296.81,479.02c7.22,1.37,11.68,3.81,17.27,7.98,0,1.95,1.86,3.34,2.4,4.37,1.81,3.47,2.68,7.2,5.01,10.72,1.06,1.59,5.39,5.78,5.56,6.32.35,1.11-.12,2.36.14,3.35.66,2.5,2.23,4.66,2,7.35.59.26,1.43-.09,1.86.05.07.02.17.54.71.69,6.17,1.68,10.73,3.31,15.8,7.13,2.75,2.07,2.98,6.7-1.46,6.09-.86-.12-.21-1.05-.67-1.53-.38-.4-1.54-.48-2.26-1.05-4.23-3.34-8.15-7.15-14.47-6.92-4.81,3.61-2.35,9.1-5.33,13.41,3.77,2.19,10.36,7.4.88,4.76l1.91,6.55.57.38c1.69-1,11.56-1.21,11.99-.73.21.24-.07,1.03.28,1.4.7.73,4.56,2.35,5.63,3.27,1.42,1.22,1.85,2.35,3.89,3.9.29.22,1.03.2,1.46.83.8,1.18,2.03,5.14,3.41,7.3v-111.31c-.79-1.2-1.52-2.45-1.95-3.59,0,0-.59-.68-1.58-2.56-.22-.42-.54-.95-.74-1.38-.12-.25-.56-1.34-.67-1.59-.19-.45.11-1.34.52-2.1.85-1.56,1.11-3.38,1.24-3.83.27-.93,1.83.27,2.26,1.41.43,1.14.81,3.73.42,4.26.2.15.36.31.5.47v-17.13c-.25-1-.33-1.65-.22-2.05-.16-.46-.03-.84.22-1.12v-198.26c0-14.93-12.1-27.03-27.03-27.03h-3.11c-14.93,0-27.03,12.1-27.03,27.03v252.7c.11.18.28.41.59.47h0Z"/>
    </g>
    <g>
      <path class="st4" d="M353.88,565.31c.33.39.66.66,1,.74,2.55-.64,3.79-2.05,6.74-1.74,3.01.32,4.87,3.39,8.26,1.75l-1.11-5.08c-3.33-.41-4.65-2.5-6.65-4.47.21-1.59-1.47-2.76-1.79-4.05-.51-2.05-1.36-10.83-1.1-12.86.36-2.78,3.55-9.06,2.79-11.22-.16-.45-.83-.44-.88-.52l-.5-9.56c1.93-2.77,4.25,1.96,4.91,3.45.79,1.78-.12,4.63,3.36,4.38l-.97-7.37,3.89-1.76c-1.8-4.55-.41-9.31-.99-13.86-.48-3.75-2.9-7.86-3.86-10.87-3.08-9.65-3.37-18.96-6.03-28.03-.99-3.37-2.83-4.27-3.68-5.83-.1-.18-2.15-2.48-3.87-5.07v106.91c0,1.73.17,3.42.48,5.06h0Z"/>
      <path class="st13" d="M355.91,446.35c.62.36.52-.85.81-1.77,1.09-3.35-1.07-8.91-1.69-11.41-.42-1.69-.89-3.24-1.27-4.54-.14-.5-.26-.93-.36-1.31v17.1c.56.65.69,1.33.69,1.33,0,0,1.2.24,1.82.6h0Z"/>
      <path class="st12" d="M354.07,423.72c.94-.16,2.27.8,2.27.8,1.15.87,1.39,2.51,1.89,3.69.65,1.53.9,2.23,1.34,3.86.48,2.53,1.25,3.7,1.92,6.11,0,0-.24.19.28.09.23-.04.21-1.37-.14-4.35s-.32-3.44-.76-5.1-.37-4.2-.43-5.16-.32-1.98.46-2.98,1.86-.16,2.37.08c.6.29.86,1.7.96,2,.45,1.38.75,3.09.95,4.82.23,2.01.9,3.84.94,5.4.04,1.65.61,5.46.61,5.46l.15-.6.18-5.35-1.18-6.61-.33-1.96s-.33-1.34.24-2.12c.57-.78,1.11-.54,1.61-.35s.97,1.68.97,1.68l2.29,9.35c-.16-.95-.47-3.71-.61-4.51-.14-.81,0-.96.28-1.2.28-.24.73-.14,1.18.05.45.19.88.9,1.28,2.29.83,2.93.65,10.7.99,11.07.02,1.79.08,3.08.07,4.1-.01,1.22-1.06,10.53-1.67,14.83l16.17,32.29,4.86,12.15c.39,2.08,1.94,7.01,1.93,8.25,0,1.51-1.92,3.88-.84,5.97l5.54,4.59c4.38,12.47,3.84,24.41,10.73,35.95v-280.86c0-14.93-12.1-27.03-27.03-27.03h-3.11c-14.93,0-27.03,12.1-27.03,27.03v146.65c.19-.2.43-.34.67-.38h0Z"/>
      <path class="st14" d="M370.66,437.68v1.39c.15.15,0-.48,0-1.39Z"/>
    </g>
    <path class="st2" d="M467.04,463.59l3.81.07c.76,3.13,3.15,5.71,4.44,8.62,2.54,5.73,2.93,11.58,4.82,17.4,2.15,6.62,6.47,12.76,8.8,19.05,1.13,3.04,2.96,13.87,5.25,15.27,1.03.63,2.19.52,3.33.29l6.48-3.85c-2.26-4.87-3.95-12.36-8.26-16.05-1.53-1.31-5.93-3.33-7.14-4.46-.14-.13-1.59-2.93-1.69-3.27-.64-2.16-.18-3.73-.45-5.67-.42-2.94-1.47-5.26-.95-8.7.41-2.69,2.86-3.78,4.09-5.89,1.92-3.28,3.92-8.99,6.12-11.89,3-3.94,10.01-8.75,15.4-6.17,1.88-1.83,6.14-4.13,9.47-4.8v-247.5c0-14.93-12.1-27.03-27.03-27.03h-3.11c-14.93,0-27.03,12.1-27.03,27.03v244.24c1.23,4.41,2.26,9.04,3.65,13.31h0Z"/>
    <g>
      <path class="st17" d="M411.81,560.28c.49.72,2.88,4.03,3.25,4.04,1.71-.88,1.14-1.94,1.45-3.04,1.51-5.38,1.69-14.09,3.06-18.1.31-.9,1.85-1.37,1.86-2.72.01-1.21-2.92-7.72-2.98-10.44-.02-1,2.2-4.52,2.72-6.25.57-1.91,1.36-5.75,1.22-7.66-.3-3.99-5.28-7.39-6.67-11.41-.48-1.39-.7-3.17-1.04-4.94-.16-.82.86-1.34,1.54-2.19.8-.99,1.3-2.26,1.3-2.26-1.3-4.06-5.18-9.6-2.92-13.73,0,0,2.28-1.56,2.87,0s4.65,12.09,4.65,12.09c0,0,.53.03,1.23.07,1.09.14.93-.6.93-.6,0,0-2.43-9.6-1.81-11.66.38-1.25,2.34-2.03,3.35-.52,1.33,1.98,3.04,4.87,3.76,7,1.3,3.86,4.88,9.19,5.37,12.56,1.63,11.37-2.75,16.28,5.02,27.63,3.05,4.45,7.63,6.78,8.57,12.3.28,1.63-.36,3.55.14,5.09.46,1.42,3.82,2.87,4.57,4.6.29.67.08,1.61.36,2.28,1.17,2.83,2.24,5.31,2.72,8.42,2.74,2.82,4.01-8.56,3.86-9.97-.62-5.73-3.89-13.98-3.91-19.11-.02-3.81,3.02-5.54,3-6.93-.06-3.83-5-11.13-6.38-15.18-1.51-4.39-3.18-10.3,1.26-13.46-1.12-7.55-5.72-16.12-6.54-23.49-.46-4.14.56-8.96-.04-12.99-.36-2.47-2.25-5.92-2.88-8.71-.6-2.66-.43-6.66-1.15-9.39-1.06-4.01-4.87-8.24-6.64-11.86-1.66-3.39-6.33-12.9-5.87-16.07.28-1.93,2.43-2.33,2.84-3.57,1.67-5.1-1.99-7.48,8.89-7.8.09-1.3-.58-7.07-.7-8.39-.14-1.5-.35-2.87-.52-4.28-.09-.74.94-2.52,1.49-2.62,1.65-.3,3.06-.37,3.38.76.43,1.5.95,10.67,2.61,13.35.93,1.5,1.11,4.95,1.52,4.24,1.03-1.79,4.09-8.81,6.8-7.44,1.23.86.33,2.11.04,3.23-.82,3.2-3.45,12.94-3.01,16.02.42,2.95-.54,6.55.17,9.4,1.45,5.82,5.65,13.79,7.62,19.67.44,1.31.84,2.66,1.22,4.03v-183.65c0-13.79-11.18-24.97-24.97-24.97h-2.88c-13.79,0-24.97,11.18-24.97,24.97v286.92c0,2.02.25,3.99.7,5.88.18.28.35.57.54.85h0Z"/>
      <path class="st17" d="M429.61,566.01c-.53-1.02-1.02-2.38-2.44-2.59l.53,13.84c2.32.77,4.8,1.2,7.36,1.25-1.79-4.18-3.35-8.47-5.46-12.5h.01Z"/>
    </g>
    <g>
      <path class="st0" d="M580.64,538.28c.89.11,1.74.09,2.54-.02v-16.16c-1.22,4.99-3.53,15.23-2.54,16.17h0Z"/>
      <path class="st16" d="M582.87,335.14c.05.19.17.38.31.56v-3.88c-.24,1.12-.45,2.76-.31,3.31h0Z"/>
      <path class="st10" d="M522.69,453.36c2.02.15,3.8,1.85,5.21,2.28,4.52,1.38,7.23.43,11.48,3.62,4.84,3.63,4.27,7.09,3.41,12.14l5.68,1.87,1.12,3.84-3.82,6.92c.41,1.41,3.37,1.97,3.64,2.28.39.45,1.25,4.6,1.14,5.5-.17,1.34-1.21,2.31-1.76,3.48l2.22,3.04c3.9-4.07,5.5-9.08,7.75-13.9,3.09-6.6,3.61-9.09,5.56-15.86,1.68-5.82,6.46-8.62,7.43-11.59.56-1.72-.08-4.03.16-5.94,1.29-10.45,4.41-20.9,5.79-31.29.97-7.29.33-14.46.95-21.73.32-3.81,1.89-7.57,1.98-11.68l2.53-3.39h.02v-36.51c-.76-.7-1.54-1.41-2.11-2-1.33-1.38-2.86-7.97-2.62-10.58s1.06-3.97,1.49-5.81,2.89-.64,3.15,1.42c.02.12.05.4.09.72v-9.91c-.29-.67-.53-1.22-.57-1.58-.06-.45.05-.94.57-1.19V86.63c0-16.1-13.05-29.15-29.15-29.15h-4.22c-16.1,0-29.15,13.05-29.15,29.15v366.89c.74-.14,1.43-.2,2.03-.16Z"/>
    </g>
    <g>
      <path class="st8" d="M584.5,336.79c.28.47,1.42.42,1.89-1.09.22-.69.08-2.82-.25-5.01-.25-1.66-.88-2.88-1.02-4.5-.39-1.1-.85-2.49-1.23-4.15-.23-.66-.49-1.24-.71-1.76v9.91c.06.51.11,1.14.04,1.46-.01.06-.03.13-.04.19v3.88c.49.61,1.32,1.09,1.32,1.09v-.02Z"/>
      <path class="st8" d="M587.08,382.84c-.29-4.4,1.07-8.67.72-13.03-.4-5.12-.51-16.49-2.36-20.81-.29-.68-1.25-1.62-2.26-2.56v36.51l3.9-.11h0Z"/>
      <path class="st8" d="M584.7,317.37c.78.2,2.03,1.57,2.94,3.4.63,1.26,2.63,6.8,3.43,9.03.73.3,2.06-.67,2.75-.48.88.25,1.09.9,1.89,1.28.24.11,1.21-.63,1.46-.52.7.3.83,1.01,1.37,1.56.23.24.28-.38,1.13-.05s.68,1.33,1.03,1.67c.42.41,1.57,11.61,1.47,12.84-.1,1.23-1.47,3.01-1.32,3.87.24,1.49-.4,30.62,1.56,34.02.41.71,3.87,2.15,4.66,3.47,3.25,5.43,1.08,8.93.72,14.04-.17,2.41.3,5.03.04,7.42-1.05,9.56-5.52,18.77-6.78,27.36-1.24,8.42.35,17.72-.97,26.91-2.52,17.61-11.65,38.6-16.32,56.6-.12.45-.33,1.27-.58,2.32v16.16c6.57-.85,10.52-7.73,18.23-4.39,3.26-.62,3.15-6.78,1.61-8.94-.59-.83-1.75-.65-2.48-1.38-2.64-2.64-4.9-14.14-4.35-17.81.76-5.09,3.45-8.97,7.69-12.28l-.46-4.68c1.04-1.49,6.76-4.94,8.78-5.19,3.16-.39,6.71.68,9.75-.62,2.27,1.62,5.08,2.09,7.6,3.34,1.56.77,2.52,2.41,4.45,2.96,2.93.84,5.27-.13,7.32,3,.62.95.62,2.19,1.21,3.15v-181.46c0-15.21-12.33-27.54-27.54-27.54h-4.27c-15.21,0-27.54,12.33-27.54,27.54v3.55c.33-.16.81-.23,1.52-.14h0Z"/>
      <path class="st8" d="M642.53,533.66v-4.17c-.94,2.43-2.2,4.75-3.63,7.04l3.63-2.88h0Z"/>
    </g>
    <g>
      <path class="st6" d="M673.99,555.29c-1.25,1.85-5.46,7.74-4.94,9.37,1.02,1.07,3.97,2.7,5.45,2.99.56.11,10.24-.68,11.34-.9,2.56-.5,5.08-3.33,8.41-2.46,1.15-.95-7.06-12.23-7.61-14.47-1.18-4.8,2.16-15.16,5.65-18.97,2.23-2.44,6.49-4.08,10.74-4.67v-78.01c-.45,2.26-.98,4.25-1.52,4.97-.84,1.12-2.29,1.88-3.24,3.18-1.83,2.52-2.91,6.39-1.95,9.32.75,2.31,5.36,2.89,5.73,5.29,1.23,7.87-1.25,20.52-3.16,28.47-4.52,18.77-13.88,39.59-24.9,55.88h0Z"/>
      <path class="st6" d="M642.57,495.49c1.37,2.11,4.41,5.12,4.16,7.62-.14,1.43-1.58,1.85-1.87,2.72-.95,2.76,1.17,6.9,3.75,8.57v.86c-4.55,2.06-4.31,4.58-2.86,8.66l-1.81.58c-.3,1.73-.78,3.37-1.4,4.97v4.18l9.49-7.52c.95-5.27,5.52-6.19,7.08-11.9,1.85-6.81,2.87-7.19,5.82-13.03,3.3-6.54,2.86-11.37,4.1-18.04.92-4.98,3.34-12.01,3.68-16.68.07-1-.99-1.82-.79-2.87,8.08.53,6.01-.53,6.81-5.63.15-.92.86-1.77.93-2.64.6-7.07,6.58-37.91,7.92-40.39,0,0,.9-4.64,3.29-3.95s-.18,9.81.51,14.86l.65-.12s1.15-8.33,1.48-11.66.47-5.49,1.98-5.66c.72-.08,2.23,0,2.65.77.46.85-.73,13.59-.06,17.3,0,0,1.7-.43,2.91.14s.54,1.61,1.33,2.63c.08.1.35.24.71.4v-65.86c0-15.35-12.45-27.8-27.8-27.8h-4.89c-15.35,0-27.8,12.45-27.8,27.8v131.63s.02.04.03.05h0Z"/>
    </g>
    <path class="st1" d="M704.88,430.6c.85.56.22,2.84.35,3.26.07,1.64-.51,3.93-.77,5.52-.22,1.36-.75,5.4-1.43,8.8v78.01c2.8-.39,5.59-.32,7.78.3,3.16.89,8.27,4.1,10.12,6.58.99,1.32,4.37,11.87,4.41,13.45.03,1.33-1.7,2.66-1.95,4.33-.31,1.98-.42,12.34.07,13.83.78,2.39,2.99.6,4.32.51,1.76-.11,3.53.08,5.28-.06l5.67-13.6c1.17-11.27,10.41-19.7,15.54-29.52.02-.05.05-.09.07-.14v-204.29c0-13.16-10.67-23.83-23.83-23.83h-3.65c-13.16,0-23.83,10.67-23.83,23.83v112.1c.56.26,1.33.58,1.85.93h0Z"/>
    <path class="st3" d="M761.74,505.24c2.24-4.67,3.2-4.71,3.82-9.96.66-5.66,3.58-9.2,6.83-13.88.41-.58,1.74-2.29,3.05-2.06.49.09.67.07,1.35.35s.5,1.52.5,1.52l.35-1.13s.89-1.24,2.16-1.35,2.3,1.63,2.3,1.63l.51,1.42c.24-2.22.93-4.58,1.8-6.67.42-1,1.55-2.95,2.39-4.59.48-.94,2.08-3.79,3.08-4.34,1.19-.66,2.03.3,2.22.5.39.4-.75,2.45-1.51,4.35-.22.88-2.24,4.56-2.28,5.17-.09,1.42-.82,3.16-1,4.15-.19,1.04-.15,1.28.28,2.27,1.44-1.18,4.37-3.71,5.65-5.13s5.2-4.31,6-5.95c.48-.98,2.14-2.17,3.2-1.78s.48,2.21-.18,3.25c-.19.46-3.73,5.68-5.06,6.63-3.45,3.48-7.67,7.28-9.07,11.96-.22.75-.64,1.94-.02,2.41.4.31.75-.12.95-.22,2.06-1.06,3.39-2.78,5.26-4.1,1.04-.74,2.99-1.12,4.51-.99s2.58.9,2.39,1.47c-.21.63-1.01,1.29-2.08,2.06-1.61,1.16-3.33,2.36-4.86,3.47-4,2.92-7.11,4.68-11.65,6.95-1.86.93-2.12.09-3.88,2.6-3.29,4.69-4.85,11.27-7.27,16.51-1.87,4.06-4.65,8.09-6.33,12.14-1.95,4.7-1.89,8.8-3.1,13.29-1.3,4.84-5.28,9.54-6.48,13.31-.64,2.02-.59,5.83-1.11,8.12,4.53-.85,6.87,1.03,10.4,2.46.82.33,1.93,0,2.23.14,7.19,3.31,6.48,11.24,7.72,17.31-2.61.11-4.79,4.26-5.27,7.57,2.91,1.39,6.11,2.26,9.49,2.51.77-6.71,3.06-13.53,6.02-19.59,3.08-6.29,11.79-19.2,19.59-20.68,2.67-.51,4.49.26,6.15-.62V198.34c0-14.74-11.95-26.69-26.69-26.69h-3.07c-14.74,0-26.69,11.95-26.69,26.69v323.52c2.71-5.22,4.82-11.25,7.4-16.62Z"/>
    <path class="st15" d="M812.95,555.35c.69-1.22,3.52-7.8,3.68-8.87.42-2.81-1.56-7.92-.86-11.11.09-.41,3.51-7.19,3.77-7.55s2.45-1.48,3.36-2.64c3.2-4.09,7.82-11.86,12.46-14.04,1.86-.88,10.04-2.97,12.04-3.11,1.04-.07,1.86.62,2.75.67,2.18.12,5.21.24,8.01.6v-196.83c0-12.37-10.03-22.4-22.4-22.4h-2.57c-12.37,0-22.4,10.03-22.4,22.4v245.25c.73-.39,1.43-1.09,2.16-2.37h0Z"/>
  </g>
  <g class="st7">
    <g class="st7">
      <path class="st17" d="M51.4,717.84v-7.76l45.93-45.93c2.23.21,4.36.66,6.39,1.37l.15-.15v.15l-52.47,52.32h0ZM51.56,719.06l53.23-53.23c1.01.41,2,.86,2.97,1.37.96.51,1.85,1.02,2.66,1.52l-25.86,25.86h-3.95c-.3,0-.46.15-.46.46v3.95l-5.02,5.02h-.15l-23.42,23.42v-8.37h0ZM51.71,698.53v-6.69l27.83-27.83h6.69l-34.53,34.53h0ZM51.71,728.03l28.75-28.75v6.69c0,.3.15.46.46.46h11.26c1.62,0,2.97-.66,4.03-1.98s1.6-2.79,1.6-4.41c0-2.43-.94-4.03-2.81-4.79-1.88-.76-3.83-1.14-5.86-1.14h-3.65l25.4-25.4c2.53,1.73,4.66,3.6,6.39,5.63l-.15.15c6.18,6.79,9.28,15.16,9.28,25.1,0,4.46-.76,8.82-2.28,13.08s-3.65,8.06-6.39,11.41-6.06,6.03-9.96,8.06c-3.9,2.03-8.24,3.04-13,3.04h-14.15c-.3,0-.46.15-.46.46v34.38c0,.3-.15.46-.46.46h-27.53c-.3,0-.46-.15-.46-.46v-41.98h0ZM70.87,663.85h6.24l-25.1,25.1v-6.24l18.86-18.86ZM61.9,663.85l5.48.15-15.36,15.36v-5.63l9.89-9.89h0ZM52.01,708.26v-7.3l36.81-36.81h7l.46-.15-44.26,44.26h-.01Z"/>
      <path class="st17" d="M133.99,719.36l56.28-56.28c1.92.3,4.16.86,6.69,1.67l-62.21,62.21c-.2-1.22-.36-2.46-.46-3.73-.1-1.27-.2-2.56-.3-3.88h0ZM134.75,710.24l47.61-47.61h.91c2.13,0,4.21.15,6.24.46l-55.21,55.21v-.91c0-2.43.15-4.81.46-7.15h-.01ZM134.6,708.11c.2-1.62.48-3.22.84-4.79.35-1.57.78-3.12,1.29-4.64l34.68-34.68c2.74-.71,5.58-1.17,8.52-1.37l.46-.15-26.01,25.86-19.77,19.77h0ZM134.91,727.73l62.97-62.97c7.3,2.64,13.89,7.2,19.77,13.69l.15.15c9.53,10.44,14.3,23.32,14.3,38.63s-4.77,28.19-14.3,38.63c-9.63,10.65-21.19,15.97-34.68,15.97-6.19,0-12.02-1.19-17.49-3.57-5.48-2.38-10.34-5.58-14.6-9.58-4.26-4-7.78-8.67-10.57-13.99-2.79-5.32-4.64-10.97-5.55-16.96h0ZM137.8,695.18c1.32-3.35,3.02-6.59,5.1-9.73,2.08-3.14,4.41-6.06,7-8.75s5.45-5.07,8.59-7.15c3.14-2.08,6.44-3.73,9.89-4.94l-30.57,30.57h-.01ZM183.27,743.09c3.24,0,6.06-.78,8.44-2.36,2.38-1.57,4.36-3.57,5.93-6.01,1.57-2.43,2.74-5.15,3.5-8.14s1.14-5.86,1.14-8.59-.41-5.58-1.22-8.52-2-5.68-3.57-8.21-3.55-4.61-5.93-6.24c-2.38-1.62-5.15-2.43-8.29-2.43s-5.91.81-8.29,2.43-4.36,3.7-5.93,6.24-2.76,5.27-3.57,8.21-1.22,5.78-1.22,8.52.38,5.6,1.14,8.59c.76,2.99,1.93,5.7,3.5,8.14,1.57,2.43,3.55,4.44,5.93,6.01s5.2,2.36,8.44,2.36Z"/>
    </g>
    <g class="st7">
      <path class="st17" d="M241.98,681.95l17.95-17.95h4.56l-22.51,22.51v-4.56ZM250.96,664h4.11l-13.08,13.08v-4.11l8.97-8.97h0ZM269.08,664l5.17-.15-30.42,30.42h-1.22c-.3,0-.46-.15-.46-.46v-2.89l26.92-26.92h0ZM278.26,663.85l5.48.15-30.27,30.27h-5.63l30.42-30.42h0ZM287.13,664h6.24l-30.57,30.57h-6.24l30.57-30.57ZM265.71,694.42l30.27-30.27h6.69l-33.92,33.92.15-3.19c0-.3-.15-.46-.46-.46h-2.74.01ZM268.75,726.67v-8.37l54-53.84h.61l.46-.46c.3,0,.46.15.46.46v6.84l-23.12,23.12h-3.19c-.3,0-.46.15-.46.46v3.19l-28.75,28.59h0ZM268.9,709.17l45.17-45.17h7.76l-52.93,52.93v-7.76ZM268.9,700.2l36.05-36.05h7.3l-43.35,43.35v-7.3h0ZM268.9,727.27l28.59-28.44v71.18c0,.3-.15.46-.46.46h-27.68c-.31,0-.46-.15-.46-.46v-42.74h0ZM324.11,672.06v21.9c0,.3-.15.46-.46.46h-21.9l22.36-22.36h0Z"/>
    </g>
    <g class="st7">
      <path class="st17" d="M348.45,664.76l-15.21,15.21v-5.63l9.58-9.58h5.63ZM361.99,698.98l-28.59,28.59v-8.37l54.91-54.91h8.37l-30.57,30.57h-3.65c-.3,0-.46.15-.46.46v3.65h-.01ZM377.35,664.61l-43.8,43.8v-7.3l36.5-36.5h7.3ZM367.92,664.3l-34.22,34.22v-6.69l27.53-27.53h6.69ZM387.54,664.15l-53.54,53.54v-7.76l45.78-45.78h7.76ZM402.75,740.2c.3,0,.46.15.46.46v29.36c0,.3-.15.46-.46.46h-68.29c-.3,0-.46-.15-.46-.46v-42.13l28.59-28.59v4.87c0,.3.15.46.46.46h20.84c.3,0,.46.15.46.46v23.42c0,.3-.15.46-.46.46h-20.84c-.3,0-.46.15-.46.46v10.04c0,.3.15.46.46.46h39.85l-.15.3v-.03ZM358.95,663.85l-24.79,24.79v-6.24l18.56-18.56h6.24,0ZM402.9,663.85c.3,0,.46.15.46.46v29.36c0,.3-.15.46-.46.46h-35.44l30.27-30.27h5.17Z"/>
    </g>
    <g class="st7">
      <path class="st17" d="M413.71,737.62c1.52-.2,3.62-.48,6.31-.84,2.69-.35,5.37-.73,8.06-1.14,2.69-.4,5.1-.78,7.22-1.14,2.13-.35,3.45-.58,3.95-.68h.46c3.55,2.43,6.54,4.41,8.97,5.93s4.97,2.54,7.6,3.04c2.13.3,4.11.3,5.93,0,5.37-.81,7.81-2.58,7.3-5.32-.3-1.83-3.19-3.29-8.67-4.41l-18.25-3.8c-5.48-1.01-10.29-3.29-14.45-6.84l12.62-12.62,10.19-10.04c.91.2,2.66.56,5.25,1.06,2.59.51,5.19,1.01,7.83,1.52,1.62.41,3.29.76,5.02,1.06,1.72.3,3.55.61,5.48.91,6.49,1.32,11.74,3.85,15.74,7.6s6.77,8.06,8.29,12.93c1.52,4.87,1.77,10.04.76,15.51-1.01,5.48-3.3,10.6-6.84,15.36-1.93,2.54-4.18,4.79-6.77,6.77-2.59,1.98-5.4,3.63-8.44,4.94-3.04,1.32-6.21,2.33-9.51,3.04-3.3.71-6.67,1.06-10.11,1.06-4.67,0-9.28-.66-13.84-1.98s-8.85-3.35-12.85-6.08c-4.01-2.74-7.53-6.18-10.57-10.34-3.04-4.16-5.38-9.13-7-14.91-.1-.4,0-.61.3-.61l.02.02ZM416.6,697.92l34.83-34.83c2.23-.3,4.61-.46,7.15-.46l-41.22,41.22c-.2-.81-.3-1.27-.3-1.37-.3-1.52-.46-3.04-.46-4.56h0ZM418.12,687.58l21.29-21.29h-.15c2.74-1.01,5.63-1.83,8.67-2.43l-31.18,31.18c.1-2.53.56-5.02,1.37-7.45h0ZM460.86,662.94h1.83c.81.1,1.57.21,2.28.3.71.1,1.47.25,2.28.46l-47.46,47.46c-.81-1.83-1.42-3.6-1.83-5.32l42.89-42.89h0ZM420.1,712.67l48.22-48.22c1.92.51,3.9,1.12,5.93,1.83l-51.26,51.26-2.89-4.87h0ZM423.6,718l22.97-22.97v1.37c.2.91.63,1.6,1.29,2.05.66.46,1.49.79,2.51.99l-22.66,22.66c-1.52-1.22-2.89-2.58-4.11-4.11h0ZM450.37,691.38l25.1-25.1c1.83.81,3.65,1.73,5.48,2.74l-21.6,21.6c-1.62-.3-3.55-.3-5.78,0-.51.1-1.04.2-1.6.3s-1.09.25-1.6.46ZM459.8,691.07l21.45-21.45c4.05,2.54,7.66,5.63,10.8,9.28s5.37,7.76,6.69,12.32c.1.41,0,.61-.3.61l-29.66,4.41c-.2,0-.36-.05-.46-.15v.15c-1.52-1.32-2.97-2.41-4.33-3.27-1.37-.86-2.76-1.5-4.18-1.9h-.01Z"/>
    </g>
  </g>
  <g class="st7">
    <g class="st7">
      <path class="st17" d="M661.02,690.52v-6.24l18.56-18.56h6.24l-24.79,24.79h-.01ZM661.17,771.59v-42.28l28.44-28.59v40.46c0,.3.15.46.46.46h48.98v.15c.3,0,.46.15.46.46v29.36c0,.3-.15.46-.46.46h-77.42c-.3,0-.45-.15-.45-.46v-.02ZM670.86,665.43l5.75-.15-15.28,15.36v-5.63l9.53-9.58h0ZM661.48,699.65v-6.69l27.69-27.83h.45c.3,0,.45.15.45.46v5.17l-28.59,28.9h0ZM661.48,718.66v-7.76l28.44-28.59v7.76l-28.44,28.59ZM661.63,719.58l28.59-28.75-.15,8.52-28.45,28.59v-8.37h.01ZM661.78,708.62v-7.3l28.59-28.75v7.3l-28.59,28.75Z"/>
      <path class="st17" d="M748.78,729.16v-8.37l28.44-28.44v8.37l-28.44,28.44ZM748.94,684.59l18.71-18.71,6.08.15-24.79,24.79v-6.24h0ZM749.09,693.41l27.68-27.68h.3c.3,0,.46.15.46.46v5.48l-28.44,28.44v-6.69h0ZM749.09,675.47l9.58-9.58,5.78-.15-15.36,15.36v-5.63h0ZM777.68,673.79v7.3l-28.29,28.29-.3-7,28.6-28.59h-.01ZM749.09,729.46l28.44-28.44v70.57c0,.3-.15.46-.46.46h-27.53c-.3,0-.46-.15-.46-.46v-42.13h.01ZM749.24,719.12v-7.76l28.6-28.59v7.76l-28.6,28.59Z"/>
      <path class="st17" d="M786.96,672.58l7-7,4.11-.15-9.89,9.89-1.22-2.74ZM789.85,678.66l13.23-13.23h4.56l-16.43,16.43-1.37-3.19h.01ZM812.06,665.43h5.02l-23.12,23.12-1.52-3.5,19.62-19.62ZM795.02,691.44l23.12-23.12,1.67,3.96-23.12,23.12-1.67-3.96ZM821.03,674.55l1.67,4.41-22.82,22.81-1.82-4.26,22.97-22.97h0ZM800.8,704.06l22.66-22.66,1.98,4.87-22.51,22.51-2.13-4.71h0ZM826.05,687.79l1.98,5.32-22.21,22.21-2.28-5.02,22.51-22.51h0ZM805.97,716.53l22.21-22.21,2.13,5.63-21.9,22.05-2.43-5.48h-.01ZM808.71,722.77l21.9-21.9,2.28,6.08-21.6,21.6-2.59-5.78h0ZM811.75,729.01l21.29-21.29.15.15c.1.21.25.3.46.3s.35-.1.46-.3v-.15l.61-1.67,40.15-40.15h7.76l.3-.15c.4,0,.56.21.46.61l-46.39,105.41c-.21.21-.36.3-.46.3h-5.48c-.1,0-.25-.1-.46-.3l-18.86-42.74v-.02ZM834.87,705.13l5.02-13.38,25.86-25.86h8.37l-39.24,39.24h-.01ZM845.97,676.99l11.26-11.26h7.76l-23.73,23.73,4.71-12.47h0ZM846.58,674.4l3.04-8.06c0-.2.1-.3.3-.3l5.17-.15-8.52,8.52h.01Z"/>
    </g>
    <g class="st7">
      <path class="st17" d="M907.87,666.34l-15.21,15.21v-5.63l9.58-9.58h5.63ZM921.41,700.56l-28.59,28.59v-8.37l54.91-54.91h8.37l-30.57,30.57h-3.65c-.3,0-.46.15-.46.46v3.65h-.01ZM936.77,666.19l-43.8,43.8v-7.3l36.5-36.5h7.3ZM927.34,665.88l-34.22,34.22v-6.69l27.53-27.53h6.69ZM946.96,665.73l-53.54,53.54v-7.76l45.78-45.78h7.76ZM962.17,741.78c.3,0,.46.15.46.46v29.36c0,.3-.15.46-.46.46h-68.29c-.3,0-.46-.15-.46-.46v-42.13l28.59-28.59v4.87c0,.3.15.46.46.46h20.84c.3,0,.46.15.46.46v23.42c0,.3-.15.46-.46.46h-20.84c-.3,0-.46.15-.46.46v10.04c0,.3.15.46.46.46h39.85l-.15.3v-.03ZM918.37,665.43l-24.79,24.79v-6.24l18.56-18.56h6.24-.01ZM962.32,665.43c.3,0,.46.15.46.46v29.36c0,.3-.15.46-.46.46h-35.44l30.27-30.27h5.17,0Z"/>
    </g>
    <g class="st7">
      <path class="st17" d="M973.13,739.2c1.52-.2,3.62-.48,6.31-.84,2.69-.35,5.37-.73,8.06-1.14,2.69-.4,5.1-.78,7.22-1.14,2.13-.35,3.45-.58,3.96-.68h.46c3.55,2.43,6.54,4.41,8.97,5.93,2.43,1.52,4.97,2.54,7.61,3.04,2.13.3,4.11.3,5.93,0,5.37-.81,7.81-2.58,7.3-5.32-.3-1.83-3.19-3.29-8.67-4.41l-18.25-3.8c-5.48-1.01-10.29-3.29-14.45-6.84l12.62-12.62,10.19-10.04c.91.2,2.66.56,5.25,1.06,2.59.51,5.2,1.01,7.83,1.52,1.62.41,3.29.76,5.02,1.06,1.72.3,3.55.61,5.48.91,6.49,1.32,11.74,3.85,15.74,7.6s6.77,8.06,8.29,12.93,1.77,10.04.76,15.51c-1.01,5.48-3.3,10.6-6.84,15.36-1.93,2.54-4.18,4.79-6.77,6.77-2.59,1.98-5.4,3.63-8.44,4.94-3.04,1.32-6.21,2.33-9.51,3.04-3.3.71-6.67,1.06-10.11,1.06-4.67,0-9.28-.66-13.84-1.98-4.56-1.32-8.85-3.35-12.85-6.08-4.01-2.74-7.53-6.18-10.57-10.34-3.04-4.16-5.38-9.13-7-14.91-.1-.4,0-.61.3-.61v.02ZM976.02,699.5l34.83-34.83c2.23-.3,4.61-.46,7.15-.46l-41.22,41.22c-.21-.81-.3-1.27-.3-1.37-.3-1.52-.46-3.04-.46-4.56ZM977.54,689.16l21.29-21.29h-.15c2.74-1.01,5.63-1.83,8.67-2.43l-31.18,31.18c.1-2.53.56-5.02,1.37-7.45h0ZM1020.28,664.52h1.83c.81.1,1.57.21,2.28.3.71.1,1.47.25,2.28.46l-47.46,47.46c-.81-1.83-1.42-3.6-1.83-5.32l42.89-42.89h0ZM979.52,714.25l48.22-48.22c1.92.51,3.9,1.12,5.93,1.83l-51.26,51.26-2.89-4.87ZM983.02,719.58l22.97-22.97v1.37c.2.91.63,1.6,1.29,2.05.66.46,1.49.79,2.51.99l-22.66,22.66c-1.52-1.22-2.89-2.58-4.11-4.11h0ZM1009.79,692.96l25.1-25.1c1.83.81,3.65,1.73,5.48,2.74l-21.6,21.6c-1.62-.3-3.55-.3-5.78,0-.51.1-1.04.2-1.6.3-.56.1-1.09.25-1.6.46ZM1019.22,692.65l21.45-21.45c4.05,2.54,7.66,5.63,10.8,9.28s5.37,7.76,6.69,12.32c.1.41,0,.61-.3.61l-29.66,4.41c-.2,0-.36-.05-.46-.15v.15c-1.52-1.32-2.97-2.41-4.33-3.27-1.37-.86-2.76-1.5-4.18-1.9h0Z"/>
    </g>
  </g>
  <g>
    <path class="st8" d="M527.9,711.44h22.56c16.25,0,27.39,12.04,27.39,30.53s-11.14,30.53-27.39,30.53h-22.56v-61.06h0ZM549.9,760.9c9.86,0,16.32-7.24,16.32-18.93s-6.46-18.93-16.32-18.93h-10.5v37.86h10.5Z"/>
    <path class="st8" d="M634.83,761.16v11.34h-44.78v-61.06h44.78v11.34h-33.35v13.26h30.6v10.99h-30.6v14.13h33.35Z"/>
  </g>
</svg>