<?xml version="1.0" encoding="UTF-8"?>
<svg id="Calque_1" xmlns="http://www.w3.org/2000/svg" version="1.1" xmlns:xlink="http://www.w3.org/1999/xlink" viewBox="0 0 639.5 959.24">
  <!-- Generator: Adobe Illustrator 29.7.0, SVG Export Plug-In . SVG Version: 2.1.1 Build 138)  -->
  <defs>
    <style>
      .st0 {
        fill: url(#Dégradé_sans_nom_7);
      }

      .st1 {
        fill: #096463;
      }

      .st2 {
        fill: url(#Dégradé_sans_nom_6);
      }

      .st3 {
        letter-spacing: .05em;
      }

      .st3, .st4, .st5, .st6, .st7, .st8, .st9 {
        isolation: isolate;
      }

      .st3, .st6, .st7, .st8, .st9 {
        font-family: Nuvel-Regular, Nuvel;
        font-size: 151.36px;
      }

      .st3, .st6, .st7, .st8, .st9, .st10 {
        fill: #faa020;
      }

      .st11 {
        fill: #078081;
      }

      .st12 {
        fill: url(#Dégradé_sans_nom_2);
      }

      .st13 {
        fill: #078080;
      }

      .st4 {
        opacity: .65;
      }

      .st4, .st14 {
        fill: #f69b23;
      }

      .st15 {
        fill: url(#Dégradé_sans_nom);
      }

      .st6 {
        letter-spacing: .03em;
      }

      .st16 {
        fill: url(#Dégradé_sans_nom_9);
      }

      .st17 {
        fill: #e85618;
      }

      .st18 {
        fill: url(#Dégradé_sans_nom_4);
      }

      .st19 {
        fill: url(#Dégradé_sans_nom_3);
      }

      .st7 {
        letter-spacing: .05em;
      }

      .st20 {
        fill: url(#Dégradé_sans_nom_5);
      }

      .st8 {
        letter-spacing: .05em;
      }

      .st9 {
        letter-spacing: .03em;
      }

      .st21 {
        fill: url(#Dégradé_sans_nom_10);
      }

      .st22 {
        fill: url(#Dégradé_sans_nom_8);
      }
    </style>
    <linearGradient id="Dégradé_sans_nom" data-name="Dégradé sans nom" x1="92.82" y1="244.14" x2="92.82" y2="389.14" gradientTransform="translate(0 39.31)" gradientUnits="userSpaceOnUse">
      <stop offset="0" stop-color="#e4471c" stop-opacity=".1"/>
      <stop offset="1" stop-color="#e4471c"/>
    </linearGradient>
    <linearGradient id="Dégradé_sans_nom_2" data-name="Dégradé sans nom 2" x1="165.52" y1="523.14" x2="165.52" y2="327.64" gradientTransform="translate(0 39.31)" gradientUnits="userSpaceOnUse">
      <stop offset="0" stop-color="#e85618"/>
      <stop offset="1" stop-color="#ed6b13"/>
    </linearGradient>
    <linearGradient id="Dégradé_sans_nom_3" data-name="Dégradé sans nom 3" x1="159.59" y1="405.94" x2="159.59" y2="396.59" gradientTransform="translate(0 39.31)" gradientUnits="userSpaceOnUse">
      <stop offset="0" stop-color="#e85618"/>
      <stop offset="1" stop-color="#ed6b13"/>
    </linearGradient>
    <linearGradient id="Dégradé_sans_nom_4" data-name="Dégradé sans nom 4" x1="181.04" y1="523.14" x2="181.04" y2="327.64" gradientTransform="translate(0 39.31)" gradientUnits="userSpaceOnUse">
      <stop offset="0" stop-color="#e85618"/>
      <stop offset="1" stop-color="#ed6b13"/>
    </linearGradient>
    <linearGradient id="Dégradé_sans_nom_5" data-name="Dégradé sans nom 5" x1="171.99" y1="401.32" x2="171.99" y2="400.63" gradientTransform="translate(0 39.31)" gradientUnits="userSpaceOnUse">
      <stop offset="0" stop-color="#e85618"/>
      <stop offset="1" stop-color="#ed6b13"/>
    </linearGradient>
    <linearGradient id="Dégradé_sans_nom_6" data-name="Dégradé sans nom 6" x1="269.18" y1="496.14" x2="269.18" y2="250.14" gradientTransform="translate(0 39.31)" gradientUnits="userSpaceOnUse">
      <stop offset="0" stop-color="#f8aa2b"/>
      <stop offset="1" stop-color="#e24218"/>
    </linearGradient>
    <linearGradient id="Dégradé_sans_nom_7" data-name="Dégradé sans nom 7" x1="341.3" y1="485.6" x2="341.21" y2="494.71" gradientTransform="translate(0 39.31)" gradientUnits="userSpaceOnUse">
      <stop offset="0" stop-color="#fec350"/>
      <stop offset="1" stop-color="#f48d09"/>
    </linearGradient>
    <linearGradient id="Dégradé_sans_nom_8" data-name="Dégradé sans nom 8" x1="342.15" y1="294.52" x2="342.13" y2="296.7" gradientTransform="translate(0 39.31)" gradientUnits="userSpaceOnUse">
      <stop offset="0" stop-color="#fec350"/>
      <stop offset="1" stop-color="#f48d09"/>
    </linearGradient>
    <linearGradient id="Dégradé_sans_nom_9" data-name="Dégradé sans nom 9" x1="318.68" y1="48.37" x2="316.25" y2="295.47" gradientTransform="translate(0 39.31)" gradientUnits="userSpaceOnUse">
      <stop offset="0" stop-color="#fec350"/>
      <stop offset="1" stop-color="#f48d09"/>
    </linearGradient>
    <linearGradient id="Dégradé_sans_nom_10" data-name="Dégradé sans nom 10" x1="543.62" y1="518.14" x2="543.62" y2="204.58" gradientTransform="translate(0 39.31)" gradientUnits="userSpaceOnUse">
      <stop offset="0" stop-color="#067272"/>
      <stop offset="1" stop-color="#1d1d1b"/>
    </linearGradient>
  </defs>
  <g class="st5">
    <g class="st5">
      <g class="st5">
        <text class="st6" transform="translate(82.55 740.19)"><tspan x="0" y="0">PO</tspan></text>
      </g>
    </g>
    <g class="st5">
      <g class="st5">
        <text class="st7" transform="translate(284.31 740.19)"><tspan x="0" y="0">T</tspan></text>
      </g>
    </g>
    <g class="st5">
      <g class="st5">
        <text class="st9" transform="translate(376.64 740.19)"><tspan x="0" y="0">E</tspan></text>
      </g>
    </g>
    <g class="st5">
      <g class="st5">
        <text class="st3" transform="translate(460.04 740.19)"><tspan x="0" y="0">S</tspan></text>
      </g>
    </g>
  </g>
  <g>
    <g class="st5">
      <g class="st5">
        <g class="st5">
          <text class="st8" transform="translate(138.04 885.57)"><tspan x="0" y="0">LIV</tspan></text>
        </g>
      </g>
      <g class="st5">
        <g class="st5">
          <text class="st9" transform="translate(382.18 885.57)"><tspan x="0" y="0">E</tspan></text>
        </g>
      </g>
      <g class="st5">
        <g class="st5">
          <text class="st3" transform="translate(465.58 885.57)"><tspan x="0" y="0">S</tspan></text>
        </g>
      </g>
    </g>
    <g>
      <path class="st14" d="M77.01,886.76v-16.55c0-11.91,8.83-20.07,22.38-20.07s22.38,8.16,22.38,20.07v16.55h-44.76ZM113.27,870.64c0-7.22-5.31-11.96-13.88-11.96s-13.88,4.74-13.88,11.96v7.7h27.75v-7.7h0Z"/>
      <path class="st14" d="M113.46,808.38h8.31v32.83h-44.76v-32.83h8.31v24.45h9.72v-22.43h8.06v22.43h10.36v-24.45h-.01Z"/>
    </g>
  </g>
  <g>
    <g>
      <path class="st13" d="M415.03,557.04c-1,1.85-4.38,7.74-3.96,9.37.82,1.07,3.18,2.7,4.37,2.99.45.11,8.21-.68,9.09-.9,2.05-.5,4.07-3.33,6.74-2.46.92-.95-5.66-12.23-6.1-14.47-.95-4.8,1.73-15.16,4.53-18.97,1.79-2.44,5.2-4.08,8.61-4.67v-78.01c-.36,2.26-.78,4.25-1.22,4.97-.67,1.12-1.83,1.88-2.6,3.18-1.47,2.52-2.33,6.39-1.56,9.32.6,2.31,4.3,2.89,4.59,5.29.99,7.87-1,20.52-2.53,28.47-3.62,18.77-11.12,39.59-19.95,55.88h-.01,0Z"/>
      <path class="st13" d="M389.86,497.24c1.1,2.11,3.53,5.12,3.33,7.62-.11,1.43-1.27,1.85-1.5,2.72-.76,2.76.94,6.9,3,8.57v.86c-3.65,2.06-3.45,4.58-2.29,8.66l-1.45.58c-.24,1.73-.63,3.37-1.12,4.97v4.18l7.6-7.52c.76-5.27,4.42-6.19,5.67-11.9,1.48-6.81,2.3-7.19,4.66-13.03,2.64-6.54,2.29-11.37,3.29-18.04.74-4.98,2.68-12.01,2.95-16.68.06-1-.79-1.82-.63-2.87,6.47.53,4.82-.53,5.46-5.63.12-.92.69-1.77.75-2.64.48-7.07,5.27-37.91,6.35-40.39,0,0,.72-4.64,2.64-3.95s-.14,9.81.41,14.86l.52-.12s.92-8.33,1.19-11.66.38-5.49,1.59-5.66c.58-.08,1.79,0,2.12.77.37.85-.58,13.59-.05,17.3,0,0,1.36-.43,2.33.14s.43,1.61,1.07,2.63c.06.1.28.24.57.4V152.74c0-15.74-10.22-28.5-22.84-28.5h-2.8c-12.61,0-22.84,12.76-22.84,28.5v344.45s.01.04.02.05h0Z"/>
    </g>
    <path class="st15" d="M77.05,520.17l6.37,12.87c-.29,1.31.89,4.6.44,6.93-.58,3.03-2.01,4.83-2.95,7.2-.93,2.34-1.91,6.57-3.33,8.44-.73.97-2.53,1.6-4.24,2.27v13.43c.53-.4.95-.75,1.13-.93,1.29-1.3,1.75-2.88,2.72-3.91,1.3-1.38,4.47-2.43,5.46-3.46,1.04-1.08,2.13-6.05,4.23-8.31,2.58-2.77,6.97-2.98,9.42-6.04l-.43-9.55-2.29.85c.02-3.39-5.32-1.59-5.58-5.98-.47-.27-1,0-1.47-.08l-.81-8.2c-.16-2.47.38-5.33-.1-7.71-.5-2.52-5.26-8.18-5.37-9.69-.1-1.47.87-3.5,1.6-4.78.77-1.34,2.24-2.65,3.01-4.02,1.79-3.24,5.09-12.01,7.12-13.76,5.19-4.47,13.77-6.85,20.22-5.66.02,0,.06.1.11.21v-165.7c0-12.7-8.25-23-18.43-23h-2.12c-10.18,0-18.43,10.3-18.43,23v203.5l3.7,2.07h.02Z"/>
    <g>
      <path class="st17" d="M132.42,550.4l-.76-7.8c-1.21-.21-.67,1.32-1.53,2.19-1.31,1.35-3.21,1.6-4.69.41v2.59h0l2.38.41c.93,2.8,2.15,3.17,4.61,2.2h-.01Z"/>
      <path class="st17" d="M112.79,480.77c5.79,1.37,9.36,3.81,13.84,7.98,0,1.95,1.49,3.34,1.92,4.37,1.45,3.47,2.15,7.2,4.01,10.72.85,1.59,4.32,5.78,4.46,6.32.28,1.11-.1,2.36.11,3.35.53,2.5,1.79,4.66,1.6,7.35.47.26,1.15-.09,1.49.05.06.02.14.54.57.69,4.94,1.68,8.6,3.31,12.66,7.13,2.2,2.07,2.39,6.7-1.17,6.09-.69-.12-.17-1.05-.54-1.53-.3-.4-1.23-.48-1.81-1.05-3.39-3.34-6.53-7.15-11.59-6.92-3.85,3.61-1.88,9.1-4.27,13.41,3.02,2.19,8.3,7.4.71,4.76l1.53,6.55.46.38c1.35-1,9.26-1.21,9.61-.73.17.24-.06,1.03.22,1.4.56.73,3.65,2.35,4.51,3.27,1.14,1.22,1.48,2.35,3.12,3.9.23.22.83.2,1.17.83.64,1.18,1.63,5.14,2.73,7.3v-111.31c-.64-1.2-1.22-2.45-1.56-3.59,0,0-.47-.68-1.27-2.56-.18-.42-.43-.95-.59-1.38-.1-.25-.45-1.34-.54-1.59-.15-.45.09-1.34.42-2.1.68-1.56.89-3.38.99-3.83.22-.93,1.47.27,1.81,1.41s.65,3.73.34,4.26c.16.15.29.31.4.47v-17.13c-.2-1-.27-1.65-.18-2.05-.13-.46-.02-.84.18-1.12v-198.26c0-14.93-9.7-27.03-21.66-27.03h-2.49c-11.96,0-21.66,12.1-21.66,27.03v252.7c.09.18.22.41.47.47h0Z"/>
    </g>
    <g>
      <path class="st12" d="M158.52,567.06c.26.39.53.66.8.74,2.04-.64,3.04-2.05,5.4-1.74,2.41.32,3.9,3.39,6.62,1.75l-.89-5.08c-2.67-.41-3.73-2.5-5.33-4.47.17-1.59-1.18-2.76-1.43-4.05-.41-2.05-1.09-10.83-.88-12.86.29-2.78,2.84-9.06,2.24-11.22-.13-.45-.67-.44-.71-.52l-.4-9.56c1.55-2.77,3.41,1.96,3.93,3.45.63,1.78-.1,4.63,2.69,4.38l-.78-7.37,3.12-1.76c-1.44-4.55-.33-9.31-.79-13.86-.38-3.75-2.32-7.86-3.09-10.87-2.47-9.65-2.7-18.96-4.83-28.03-.79-3.37-2.27-4.27-2.95-5.83-.08-.18-1.72-2.48-3.1-5.07v106.91c0,1.73.14,3.42.38,5.06h0Z"/>
      <path class="st19" d="M160.15,448.1c.5.36.42-.85.65-1.77.87-3.35-.86-8.91-1.35-11.41-.34-1.69-.71-3.24-1.02-4.54-.12-.5-.21-.93-.29-1.31v17.1c.45.65.55,1.33.55,1.33,0,0,.96.24,1.46.6h0Z"/>
      <path class="st18" d="M158.68,425.47c.75-.16,1.82.8,1.82.8.92.87,1.11,2.51,1.51,3.69.52,1.53.72,2.23,1.07,3.86.38,2.53,1,3.7,1.54,6.11,0,0-.19.19.22.09.18-.04.17-1.37-.11-4.35s-.26-3.44-.61-5.1-.3-4.2-.34-5.16c-.05-.96-.26-1.98.37-2.98.62-1,1.49-.16,1.9.08.48.29.69,1.7.77,2,.36,1.38.6,3.09.76,4.82.18,2.01.72,3.84.75,5.4.03,1.65.49,5.46.49,5.46l.12-.6.14-5.35-.95-6.61-.26-1.96s-.26-1.34.19-2.12c.46-.78.89-.54,1.29-.35s.78,1.68.78,1.68l1.83,9.35c-.13-.95-.37-3.71-.49-4.51-.11-.81,0-.96.22-1.2.22-.24.58-.14.95.05.36.19.71.9,1.03,2.29.67,2.93.52,10.7.79,11.07.02,1.79.06,3.08.06,4.1,0,1.22-.85,10.53-1.34,14.83l12.96,32.29,3.89,12.15c.31,2.08,1.55,7.01,1.55,8.25,0,1.51-1.54,3.88-.67,5.97l4.44,4.59c3.51,12.47,3.08,24.41,8.6,35.95v-280.86c0-14.93-9.7-27.03-21.66-27.03h-2.49c-11.96,0-21.66,12.1-21.66,27.03v146.65c.15-.2.34-.34.54-.38h0Z"/>
      <path class="st20" d="M171.97,439.43v1.39c.12.15,0-.48,0-1.39Z"/>
    </g>
    <path class="st2" d="M249.2,465.34l3.05.07c.61,3.13,2.52,5.71,3.56,8.62,2.04,5.73,2.35,11.58,3.86,17.4,1.72,6.62,5.18,12.76,7.05,19.05.91,3.04,2.37,13.87,4.21,15.27.83.63,1.75.52,2.67.29l5.19-3.85c-1.81-4.87-3.17-12.36-6.62-16.05-1.23-1.31-4.75-3.33-5.72-4.46-.11-.13-1.27-2.93-1.35-3.27-.51-2.16-.14-3.73-.36-5.67-.34-2.94-1.18-5.26-.76-8.7.33-2.69,2.29-3.78,3.28-5.89,1.54-3.28,3.14-8.99,4.9-11.89,2.4-3.94,8.02-8.75,12.34-6.17,1.51-1.83,4.92-4.13,7.59-4.8v-247.5c0-14.93-9.7-27.03-21.66-27.03h-2.49c-11.96,0-21.66,12.1-21.66,27.03v244.24c.99,4.41,1.81,9.04,2.92,13.31h0Z"/>
    <g>
      <path class="st10" d="M204.95,562.03c.39.72,2.31,4.03,2.6,4.04,1.37-.88.91-1.94,1.16-3.04,1.21-5.38,1.35-14.09,2.45-18.1.25-.9,1.48-1.37,1.49-2.72,0-1.21-2.34-7.72-2.39-10.44-.02-1,1.76-4.52,2.18-6.25.46-1.91,1.09-5.75.98-7.66-.24-3.99-4.23-7.39-5.34-11.41-.38-1.39-.56-3.17-.83-4.94-.13-.82.69-1.34,1.23-2.19.64-.99,1.04-2.26,1.04-2.26-1.04-4.06-4.15-9.6-2.34-13.73,0,0,1.83-1.56,2.3,0s3.73,12.09,3.73,12.09c0,0,.42.03.99.07.87.14.75-.6.75-.6,0,0-1.95-9.6-1.45-11.66.3-1.25,1.88-2.03,2.68-.52,1.07,1.98,2.44,4.87,3.01,7,1.04,3.86,3.91,9.19,4.3,12.56,1.31,11.37-2.2,16.28,4.02,27.63,2.44,4.45,6.11,6.78,6.87,12.3.22,1.63-.29,3.55.11,5.09.37,1.42,3.06,2.87,3.66,4.6.23.67.06,1.61.29,2.28.94,2.83,1.79,5.31,2.18,8.42,2.2,2.82,3.21-8.56,3.09-9.97-.5-5.73-3.12-13.98-3.13-19.11-.02-3.81,2.42-5.54,2.4-6.93-.05-3.83-4.01-11.13-5.11-15.18-1.21-4.39-2.55-10.3,1.01-13.46-.9-7.55-4.58-16.12-5.24-23.49-.37-4.14.45-8.96-.03-12.99-.29-2.47-1.8-5.92-2.31-8.71-.48-2.66-.34-6.66-.92-9.39-.85-4.01-3.9-8.24-5.32-11.86-1.33-3.39-5.07-12.9-4.7-16.07.22-1.93,1.95-2.33,2.28-3.57,1.34-5.1-1.59-7.48,7.12-7.8.07-1.3-.46-7.07-.56-8.39-.11-1.5-.28-2.87-.42-4.28-.07-.74.75-2.52,1.19-2.62,1.32-.3,2.45-.37,2.71.76.34,1.5.76,10.67,2.09,13.35.75,1.5.89,4.95,1.22,4.24.83-1.79,3.28-8.81,5.45-7.44.99.86.26,2.11.03,3.23-.66,3.2-2.76,12.94-2.41,16.02.34,2.95-.43,6.55.14,9.4,1.16,5.82,4.53,13.79,6.11,19.67.35,1.31.67,2.66.98,4.03v-183.65c0-13.79-8.96-24.97-20.01-24.97h-2.31c-11.05,0-20.01,11.18-20.01,24.97v286.92c0,2.02.2,3.99.56,5.88.15.28.28.57.43.85h0Z"/>
      <path class="st10" d="M219.21,567.76c-.42-1.02-.82-2.38-1.96-2.59l.43,13.84c1.86.77,3.84,1.2,5.9,1.25-1.44-4.18-2.69-8.47-4.37-12.5h0Z"/>
    </g>
    <g>
      <path class="st0" d="M340.23,540.03c.72.11,1.39.09,2.04-.02v-16.16c-.97,4.99-2.83,15.23-2.04,16.17h0Z"/>
      <path class="st22" d="M342.02,336.89c.04.19.13.38.25.56v-3.88c-.2,1.12-.36,2.76-.25,3.31h0Z"/>
      <path class="st16" d="M293.79,455.11c1.62.15,3.04,1.85,4.17,2.28,3.62,1.38,5.79.43,9.2,3.62,3.88,3.63,3.42,7.09,2.73,12.14l4.55,1.87.9,3.84-3.06,6.92c.33,1.41,2.7,1.97,2.92,2.28.31.45,1,4.6.91,5.5-.14,1.34-.97,2.31-1.41,3.48l1.78,3.04c3.13-4.07,4.41-9.08,6.21-13.9,2.48-6.6,2.89-9.09,4.46-15.86,1.35-5.82,5.18-8.62,5.95-11.59.45-1.72-.06-4.03.13-5.94,1.03-10.45,3.53-20.9,4.64-31.29.78-7.29.26-14.46.76-21.73.26-3.81,1.51-7.57,1.59-11.68l2.03-3.39h.02v-36.51c-.61-.7-1.24-1.41-1.69-2-1.07-1.38-2.29-7.97-2.1-10.58s.85-3.97,1.19-5.81,2.32-.64,2.52,1.42c.01.12.04.4.07.72v-9.91c-.23-.67-.42-1.22-.46-1.58-.05-.45.04-.94.46-1.19V88.38c0-16.1-10.46-29.15-23.36-29.15h-3.38c-12.9,0-23.36,13.05-23.36,29.15v366.89c.59-.14,1.14-.2,1.63-.16h0Z"/>
    </g>
    <g>
      <path class="st14" d="M343.32,338.54c.22.47,1.14.42,1.51-1.09.18-.69.06-2.82-.2-5.01-.2-1.66-.71-2.88-.82-4.5-.31-1.1-.68-2.49-.99-4.15-.19-.66-.39-1.24-.57-1.76v9.91c.05.51.09,1.14.03,1.46-.01.06-.02.13-.03.19v3.88c.39.61,1.06,1.09,1.06,1.09v-.02h.01Z"/>
      <path class="st14" d="M345.39,384.59c-.23-4.4.86-8.67.58-13.03-.32-5.12-.41-16.49-1.89-20.81-.23-.68-1-1.62-1.81-2.56v36.51l3.13-.11h-.01,0Z"/>
      <path class="st14" d="M343.48,319.12c.63.2,1.63,1.57,2.36,3.4.5,1.26,2.11,6.8,2.75,9.03.58.3,1.65-.67,2.2-.48.71.25.87.9,1.51,1.28.19.11.97-.63,1.17-.52.56.3.67,1.01,1.1,1.56.18.24.22-.38.91-.05s.54,1.33.83,1.67c.34.41,1.26,11.61,1.18,12.84s-1.18,3.01-1.06,3.87c.19,1.49-.32,30.62,1.25,34.02.33.71,3.1,2.15,3.73,3.47,2.6,5.43.87,8.93.58,14.04-.14,2.41.24,5.03.03,7.42-.84,9.56-4.42,18.77-5.43,27.36-.99,8.42.28,17.72-.78,26.91-2.02,17.61-9.34,38.6-13.08,56.6-.09.45-.26,1.27-.46,2.32v16.16c5.26-.85,8.43-7.73,14.61-4.39,2.61-.62,2.52-6.78,1.29-8.94-.47-.83-1.4-.65-1.99-1.38-2.12-2.64-3.93-14.14-3.49-17.81.61-5.09,2.76-8.97,6.16-12.28l-.37-4.68c.83-1.49,5.42-4.94,7.04-5.19,2.53-.39,5.38.68,7.81-.62,1.82,1.62,4.07,2.09,6.09,3.34,1.25.77,2.02,2.41,3.57,2.96,2.35.84,4.22-.13,5.87,3,.5.95.5,2.19.97,3.15v-181.46c0-15.21-9.88-27.54-22.07-27.54h-3.42c-12.19,0-22.07,12.33-22.07,27.54v3.55c.26-.16.65-.23,1.22-.14h-.01Z"/>
      <path class="st14" d="M389.82,535.41v-4.17c-.75,2.43-1.76,4.75-2.91,7.04l2.91-2.88h0Z"/>
    </g>
    <g>
      <path class="st4" d="M415.03,557.04c-1,1.85-4.38,7.74-3.96,9.37.82,1.07,3.18,2.7,4.37,2.99.45.11,8.21-.68,9.09-.9,2.05-.5,4.07-3.33,6.74-2.46.92-.95-5.66-12.23-6.1-14.47-.95-4.8,1.73-15.16,4.53-18.97,1.79-2.44,5.2-4.08,8.61-4.67v-78.01c-.36,2.26-.78,4.25-1.22,4.97-.67,1.12-1.83,1.88-2.6,3.18-1.47,2.52-2.33,6.39-1.56,9.32.6,2.31,4.3,2.89,4.59,5.29.99,7.87-1,20.52-2.53,28.47-3.62,18.77-11.12,39.59-19.95,55.88h-.01,0Z"/>
      <path class="st4" d="M389.86,497.24c1.1,2.11,3.53,5.12,3.33,7.62-.11,1.43-1.27,1.85-1.5,2.72-.76,2.76.94,6.9,3,8.57v.86c-3.65,2.06-3.45,4.58-2.29,8.66l-1.45.58c-.24,1.73-.63,3.37-1.12,4.97v4.18l7.6-7.52c.76-5.27,4.42-6.19,5.67-11.9,1.48-6.81,2.3-7.19,4.66-13.03,2.64-6.54,2.29-11.37,3.29-18.04.74-4.98,2.68-12.01,2.95-16.68.06-1-.79-1.82-.63-2.87,6.47.53,4.82-.53,5.46-5.63.12-.92.69-1.77.75-2.64.48-7.07,5.27-37.91,6.35-40.39,0,0,.72-4.64,2.64-3.95s-.14,9.81.41,14.86l.52-.12s.92-8.33,1.19-11.66.38-5.49,1.59-5.66c.58-.08,1.79,0,2.12.77.37.85-.58,13.59-.05,17.3,0,0,1.36-.43,2.33.14s.43,1.61,1.07,2.63c.06.1.28.24.57.4v-65.86c0-15.35-9.97-27.8-22.28-27.8h-3.92c-12.3,0-22.28,12.45-22.28,27.8v131.63s.01.04.02.05h0Z"/>
    </g>
    <path class="st1" d="M439.79,432.35c.68.56.18,2.84.28,3.26.06,1.64-.41,3.93-.62,5.52-.17,1.36-.6,5.4-1.15,8.8v78.01c2.24-.39,4.48-.32,6.23.3,2.53.89,6.63,4.1,8.11,6.58.79,1.32,3.5,11.87,3.53,13.45.02,1.33-1.36,2.66-1.56,4.33-.25,1.98-.34,12.34.06,13.83.63,2.39,2.4.6,3.46.51,1.41-.11,2.83.08,4.23-.06l4.54-13.6c.94-11.27,8.34-19.7,12.45-29.52.02-.05.04-.09.06-.14v-204.29c0-13.16-8.55-23.83-19.1-23.83h-2.92c-10.55,0-19.1,10.67-19.1,23.83v112.1c.45.26,1.07.58,1.48.93h.02Z"/>
    <path class="st11" d="M485.35,506.99c1.79-4.67,2.56-4.71,3.06-9.96.53-5.66,2.87-9.2,5.47-13.88.33-.58,1.39-2.29,2.44-2.06.39.09.54.07,1.08.35s.4,1.52.4,1.52l.28-1.13s.71-1.24,1.73-1.35,1.84,1.63,1.84,1.63l.41,1.42c.19-2.22.75-4.58,1.44-6.67.34-1,1.24-2.95,1.92-4.59.38-.94,1.67-3.79,2.47-4.34.95-.66,1.63.3,1.78.5.31.4-.6,2.45-1.21,4.35-.18.88-1.79,4.56-1.83,5.17-.07,1.42-.66,3.16-.8,4.15-.15,1.04-.12,1.28.22,2.27,1.15-1.18,3.5-3.71,4.53-5.13s4.17-4.31,4.81-5.95c.38-.98,1.71-2.17,2.56-1.78s.38,2.21-.14,3.25c-.15.46-2.99,5.68-4.05,6.63-2.76,3.48-6.15,7.28-7.27,11.96-.18.75-.51,1.94-.02,2.41.32.31.6-.12.76-.22,1.65-1.06,2.72-2.78,4.21-4.1.83-.74,2.4-1.12,3.61-.99s2.07.9,1.92,1.47c-.17.63-.81,1.29-1.67,2.06-1.29,1.16-2.67,2.36-3.89,3.47-3.21,2.92-5.7,4.68-9.34,6.95-1.49.93-1.7.09-3.11,2.6-2.64,4.69-3.89,11.27-5.83,16.51-1.5,4.06-3.73,8.09-5.07,12.14-1.56,4.7-1.51,8.8-2.48,13.29-1.04,4.84-4.23,9.54-5.19,13.31-.51,2.02-.47,5.83-.89,8.12,3.63-.85,5.5,1.03,8.33,2.46.66.33,1.55,0,1.79.14,5.76,3.31,5.19,11.24,6.19,17.31-2.09.11-3.84,4.26-4.22,7.57,2.33,1.39,4.9,2.26,7.6,2.51.62-6.71,2.45-13.53,4.82-19.59,2.47-6.29,9.45-19.2,15.7-20.68,2.14-.51,3.6.26,4.93-.62V200.09c0-14.74-9.58-26.69-21.39-26.69h-2.46c-11.81,0-21.39,11.95-21.39,26.69v323.52c2.17-5.22,3.86-11.25,5.93-16.62h.02,0Z"/>
    <path class="st21" d="M526.38,557.1c.55-1.22,2.82-7.8,2.95-8.87.34-2.81-1.25-7.92-.69-11.11.07-.41,2.81-7.19,3.02-7.55s1.96-1.48,2.69-2.64c2.56-4.09,6.27-11.86,9.98-14.04,1.49-.88,8.05-2.97,9.65-3.11.83-.07,1.49.62,2.2.67,1.74.12,4.18.24,6.42.6v-196.83c0-12.37-8.04-22.4-17.95-22.4h-2.06c-9.91,0-17.95,10.03-17.95,22.4v245.25c.59-.39,1.15-1.09,1.73-2.37h.01Z"/>
  </g>
</svg>